<svg version="1.1" id="Layer_1" xmlns="http://www.w3.org/2000/svg" xmlns:xlink="http://www.w3.org/1999/xlink" x="0px" y="0px"
	 width="100%" viewBox="0 0 406 114" enable-background="new 0 0 406 114" xml:space="preserve">
<path fill="#000000" opacity="1.000000" stroke="none" 
	d="
M167.000000,1.000002 
	C246.965958,1.000000 326.931915,1.000000 406.948914,1.000000 
	C406.948914,38.949722 406.948914,76.899529 406.948914,114.924667 
	C271.774506,114.924667 136.548981,114.924667 1.161719,114.924667 
	C1.161719,77.124596 1.161719,39.248276 1.161719,1.000000 
	C52.020290,1.000000 103.041489,1.000000 154.829376,1.260865 
	C153.686646,3.645948 151.777206,5.770166 149.887299,7.923411 
	C149.906815,7.952437 149.960770,7.907932 149.697571,7.976102 
	C149.266037,8.349231 149.097672,8.654190 148.943176,8.937057 
	C148.957047,8.914966 148.904892,8.914418 148.628571,8.997092 
	C148.111435,9.536053 147.870605,9.992338 147.484924,10.445700 
	C147.340057,10.442775 147.174622,10.680716 146.910065,10.769149 
	C146.399567,11.558024 146.153641,12.258467 145.599487,13.092284 
	C143.486420,15.468006 141.681595,17.710352 139.573792,20.090986 
	C136.811356,23.135761 134.351868,26.042248 131.587921,29.087435 
	C128.502609,32.439590 125.721748,35.653046 122.691635,38.966614 
	C122.135666,39.484184 121.828949,39.901649 121.512314,40.334213 
	C121.502403,40.349312 121.466721,40.332661 121.173882,40.507179 
	C118.268875,43.502178 115.656708,46.322655 112.572617,49.081619 
	C105.084602,48.974506 98.068512,48.928917 91.019157,48.658813 
	C90.985886,48.434303 90.831970,48.007267 90.909149,47.543373 
	C91.322891,35.709274 91.726410,24.340109 91.901840,12.967421 
	C91.921333,11.703689 90.641357,10.419911 89.591400,9.070597 
	C84.675285,11.446213 80.131805,13.896664 75.588333,16.347115 
	C75.819176,17.058887 76.050026,17.770660 76.280869,18.482433 
	C78.396286,18.149698 80.511703,17.816963 82.761673,17.463064 
	C82.537758,21.990591 85.672386,19.317514 88.980110,18.883253 
	C87.896332,25.936579 86.898911,32.427841 85.540749,38.956299 
	C83.099174,39.950108 81.018356,40.906723 78.701294,41.926338 
	C78.465057,41.989330 77.993156,42.119614 77.719193,42.085911 
	C77.252266,42.350365 77.059303,42.648521 76.618561,42.975094 
	C76.370789,43.003513 75.903725,43.178619 75.578972,43.104397 
	C74.478310,43.333012 73.702393,43.635849 72.961441,43.970036 
	C72.996407,44.001385 72.943634,43.925159 72.679123,44.007004 
	C72.605713,44.445225 72.796814,44.801601 72.981979,45.340950 
	C72.976051,45.523922 72.941490,45.888424 72.615120,45.929848 
	C71.855980,46.032413 71.423218,46.093559 70.730133,46.106911 
	C70.298485,46.101246 70.127144,46.143375 69.551361,46.109028 
	C66.089729,45.337032 63.032551,44.641514 59.875576,43.631870 
	C57.604591,42.360355 57.090275,37.490849 52.533768,40.586449 
	C55.416035,41.836796 57.736458,42.843414 60.044182,44.225945 
	C61.590546,46.724972 63.149605,48.848091 64.811020,51.110588 
	C64.010826,52.897598 63.093647,54.945869 62.015236,57.314758 
	C60.115314,61.577950 55.285172,64.518845 57.256985,69.663681 
	C57.904617,69.932686 58.552250,70.201698 59.199886,70.470703 
	C60.813873,66.686913 62.427864,62.903126 64.374405,59.001350 
	C66.272255,56.667648 67.837547,54.451927 69.178108,52.554329 
	C70.989838,52.370480 72.538048,52.213371 74.465576,51.880577 
	C79.216919,51.511662 83.588943,51.318439 87.975739,51.566696 
	C87.990509,54.296688 87.990509,56.585205 87.990509,58.835384 
	C85.799553,58.986324 84.119247,59.102081 81.706635,59.268291 
	C83.625031,60.739407 84.855606,61.683075 86.144524,62.671482 
	C85.326378,63.741547 84.680557,64.586220 83.721062,65.841156 
	C88.657906,66.245049 90.741089,64.120522 90.978363,60.019001 
	C91.151245,57.030754 91.096138,54.029324 91.599617,51.018681 
	C98.351936,51.061459 104.647293,51.119320 110.939529,51.318581 
	C110.936394,51.459976 110.989502,51.737812 110.702347,51.894833 
	C109.656723,53.043213 108.898262,54.034573 107.989037,55.329826 
	C104.510712,59.277760 100.985321,62.762600 97.897697,66.599709 
	C91.873924,74.085701 85.893768,81.876266 84.419571,91.566246 
	C83.899193,94.986717 86.205795,99.330757 88.392426,102.426086 
	C89.264023,103.659912 93.935020,103.665642 95.794479,102.501823 
	C105.522575,96.413101 113.081398,88.255684 117.411972,76.978149 
	C117.576530,74.330269 117.049652,71.878952 117.305901,69.512428 
	C117.474869,67.951889 118.641563,66.422058 119.609436,65.053848 
	C120.206406,64.209969 121.269463,63.695797 122.438766,62.882660 
	C124.862717,61.561573 126.971161,60.391418 129.105011,59.189312 
	C129.130417,59.157356 129.104904,59.082176 129.354111,59.004120 
	C129.779572,58.636364 129.955841,58.346668 130.427673,57.910301 
	C132.776382,56.189316 134.829529,54.614994 136.924042,53.453629 
	C137.019714,55.248661 137.074005,56.630745 137.063477,58.364510 
	C137.382202,59.808926 137.765732,60.901653 138.202103,62.368340 
	C139.982407,63.825527 141.821625,65.958649 143.415726,65.788963 
	C147.665894,65.336548 151.810623,63.893570 156.344543,62.810066 
	C160.330643,60.335155 163.969452,57.894543 167.724930,55.375690 
	C167.897263,56.400906 168.031891,57.201778 168.097931,58.373871 
	C168.066162,59.497036 168.102997,60.248974 168.151245,61.324005 
	C169.145813,62.904942 170.128952,64.162781 171.182434,65.592148 
	C171.252777,65.763664 171.594894,65.906616 171.744781,66.155182 
	C172.593552,66.560631 173.292419,66.717506 174.417816,66.931061 
	C178.694687,67.440369 182.232513,66.883369 185.330582,63.827896 
	C186.809464,62.897133 187.959656,61.982189 189.065598,61.051598 
	C189.021362,61.035957 189.074020,61.113621 189.294662,61.072559 
	C189.515305,61.031498 189.959930,61.093739 190.109253,61.412613 
	C192.023499,65.682167 194.349960,67.362305 198.459183,64.287384 
	C201.106186,62.306633 204.087738,60.773010 207.071915,59.376499 
	C209.818466,67.082268 212.287445,68.398277 219.762115,65.942062 
	C221.648682,65.322128 223.268234,63.889614 225.337097,62.904598 
	C226.483887,62.350750 227.304077,61.722813 228.071259,61.068710 
	C228.018265,61.042542 228.093903,61.133385 228.452728,61.079002 
	C231.096039,59.835724 233.380524,58.646820 235.717239,57.430744 
	C236.685471,61.015179 234.264694,65.193939 239.424713,66.941528 
	C244.245270,67.424217 248.005707,66.139961 251.334183,62.904819 
	C252.478622,62.365841 253.297653,61.751236 254.072708,61.067665 
	C254.028748,60.998703 254.131912,61.126900 254.477692,61.081955 
	C257.266998,59.049934 259.710541,57.062855 262.394958,55.000740 
	C262.812134,54.647041 262.988464,54.368378 263.389709,54.020638 
	C263.902527,53.769062 264.059296,53.507847 264.396698,53.016342 
	C266.039429,51.902431 267.370361,50.940094 269.060425,50.000362 
	C269.550659,51.236717 270.257538,53.052803 269.719788,53.566879 
	C266.110596,57.017094 268.146515,60.690865 269.511200,63.863335 
	C271.015076,67.359253 274.583557,67.477089 278.369690,66.907112 
	C280.205536,66.341103 281.677185,65.699142 283.362518,65.024200 
	C283.576202,64.991219 283.983337,64.845520 284.281342,64.873283 
	C285.054749,64.553711 285.530182,64.206383 286.335144,63.852882 
	C287.808105,62.948418 288.951538,62.050117 290.110168,61.138042 
	C290.125336,61.124268 290.159302,61.099888 290.463409,60.948792 
	C293.158966,59.238819 295.550385,57.679939 297.966370,56.535286 
	C298.018494,64.631561 300.628693,67.206505 308.411957,66.907021 
	C316.453918,63.892212 324.092041,60.801754 331.701630,57.722839 
	C333.538300,63.109779 336.581512,64.042534 341.298889,60.257217 
	C343.244995,58.695633 345.342407,57.322617 348.166992,55.291416 
	C347.211426,60.017704 346.236877,63.966606 350.698639,66.141243 
	C355.251160,68.360115 358.911743,66.567619 362.768524,63.876926 
	C371.057434,58.094093 377.681763,50.957787 383.307129,42.561295 
	C385.558746,39.200470 386.291229,36.053055 385.866791,32.465656 
	C385.720184,31.226141 384.384460,29.751091 383.205750,29.178513 
	C382.666809,28.916714 380.954681,30.395952 380.180511,31.398861 
	C373.829437,39.626575 367.620911,47.964699 361.228577,56.159676 
	C360.452606,57.154495 358.842651,57.498768 357.619202,58.144539 
	C357.291016,57.748531 356.962799,57.352524 356.634583,56.956516 
	C361.423370,50.490952 366.212158,44.025387 370.597809,38.104076 
	C366.895233,32.402348 364.004913,35.394371 360.733124,38.638485 
	C358.011139,41.337410 354.741058,43.483578 351.713776,45.874588 
	C351.170380,45.270184 350.626984,44.665779 350.083588,44.061375 
	C354.470764,40.675575 358.857971,37.289776 363.245178,33.903973 
	C362.685547,33.039894 362.125916,32.175816 361.566315,31.311735 
	C358.650574,31.453032 355.502899,30.952944 352.879242,31.901833 
	C349.765747,33.027870 346.875763,35.133938 344.314606,37.315098 
	C342.114166,39.189053 340.943878,42.495026 338.568298,43.900818 
	C330.200714,48.852531 321.510406,53.258827 312.519531,57.927242 
	C310.467163,57.982456 308.837708,57.982456 307.040619,57.982456 
	C307.040619,56.407791 307.040619,55.261570 307.358582,53.980587 
	C308.665405,53.038391 309.801941,51.403252 310.620575,51.549377 
	C320.689545,53.346718 326.379242,46.222298 332.615265,40.630280 
	C334.069458,39.326279 334.800232,35.671494 334.037201,33.873558 
	C333.275269,32.078281 330.340637,30.469170 328.153534,30.139914 
	C317.736633,28.571712 311.357605,35.471268 304.573242,42.079411 
	C302.829773,43.424492 301.391296,44.651958 299.582336,45.927704 
	C295.527588,48.322582 291.843292,50.669182 288.087097,53.225513 
	C288.015167,53.435246 287.958740,53.875095 287.720947,53.929947 
	C287.483185,53.984802 287.024933,54.152664 286.688324,54.165470 
	C284.902618,55.173367 283.453491,56.168457 281.632446,57.095474 
	C280.300659,57.335285 279.340851,57.643169 277.013916,58.389599 
	C279.772705,53.182335 281.907562,49.152786 284.357971,44.984634 
	C287.503296,41.552685 290.333038,38.259335 293.202881,34.919353 
	C286.877350,31.348986 281.298767,33.342983 278.007843,40.319214 
	C274.799225,43.767662 271.734222,46.895538 268.756775,49.578415 
	C269.465820,48.027416 270.138458,46.946682 270.699310,45.810749 
	C272.473633,42.217014 274.493469,38.702206 275.796722,34.941448 
	C276.244049,33.650692 274.859100,31.724964 274.311249,30.089317 
	C273.467987,30.586599 272.385620,30.895218 271.820282,31.611774 
	C268.116699,36.305775 264.524902,41.087959 260.898682,45.859398 
	C260.900726,45.877441 260.868927,45.888721 260.590637,45.996284 
	C259.831360,46.719379 259.350433,47.334911 258.582825,48.071518 
	C257.502533,48.764526 256.708862,49.336456 255.532181,49.947075 
	C254.123749,49.952198 253.098328,49.918640 251.953140,49.599609 
	C252.567429,47.580181 253.301468,45.846226 254.295197,44.023216 
	C254.755005,43.636021 254.955109,43.337883 255.378815,42.983086 
	C255.889084,42.748890 256.037506,42.491596 256.282593,42.064846 
	C256.848541,41.601482 257.179565,41.227814 257.645447,40.794258 
	C257.780334,40.734371 257.886322,40.458935 258.135742,40.278683 
	C259.951721,38.238934 261.518219,36.379433 263.146454,34.446690 
	C259.378571,31.535978 256.364655,30.682451 253.591278,35.045235 
	C252.869598,35.707542 252.413757,36.280811 251.711945,36.953918 
	C251.365799,37.358997 251.265610,37.664234 251.012161,38.287613 
	C246.886536,41.796013 242.914154,44.986279 238.490112,48.105255 
	C233.981781,47.658405 229.925140,47.282837 226.003143,46.631271 
	C226.765289,45.845486 227.392776,45.335705 228.346252,44.899853 
	C229.490875,44.348980 230.309540,43.724174 231.077698,43.058628 
	C231.027222,43.017891 231.097580,43.126896 231.413391,42.975704 
	C234.681000,40.853733 237.785095,39.064507 240.488022,36.797070 
	C241.258301,36.150871 240.863174,34.115440 241.002472,32.717075 
	C239.707047,32.643456 238.075806,32.035233 237.180038,32.597881 
	C234.636368,34.195621 232.393082,36.271549 229.781372,38.115772 
	C229.343658,38.335800 229.156082,38.599270 228.644867,38.920616 
	C227.825577,39.327423 227.329895,39.676357 226.514771,40.159531 
	C224.342804,41.234226 222.490311,42.174679 220.637802,43.115128 
	C220.287216,42.877430 219.936615,42.639729 219.586014,42.402031 
	C221.493896,38.806145 223.401764,35.210262 225.309647,31.614376 
	C224.963745,31.123915 224.617828,30.633455 224.271927,30.142994 
	C221.190353,31.221901 217.751175,31.766579 215.124451,33.524956 
	C212.310196,35.408867 210.260757,38.435291 207.569519,41.100304 
	C205.466553,42.475494 203.671600,43.713459 201.554733,45.098343 
	C197.998001,46.851528 194.763214,48.457794 192.457077,49.602921 
	C190.162201,51.513580 188.580063,52.830845 186.753784,54.118126 
	C186.181885,54.242165 185.998535,54.499203 185.720001,54.916832 
	C185.480438,54.974403 185.016449,55.140312 184.665039,55.185818 
	C182.400406,56.188713 180.487152,57.146107 178.573914,58.103497 
	C178.279404,57.796814 177.984894,57.490135 177.690384,57.183453 
	C179.471848,53.494194 181.253311,49.804932 183.295532,46.029240 
	C183.745850,45.639565 183.935410,45.336319 184.086868,45.041958 
	C184.048767,45.050842 184.084732,45.120338 184.390381,44.981270 
	C185.505203,43.582436 186.314362,42.322670 187.084961,41.048393 
	C187.046402,41.033886 187.064041,41.114384 187.373703,40.975189 
	C189.723633,39.111435 191.763901,37.386879 194.786713,34.831814 
	C192.103577,33.872581 191.039001,33.491997 189.582825,33.052177 
	C188.137772,33.029789 187.084335,33.066639 185.708221,33.035583 
	C184.884949,33.278908 184.384354,33.590145 183.918152,33.922493 
	C183.952560,33.943607 183.965347,33.863876 183.647888,33.899780 
	C182.850769,34.254814 182.371109,34.573936 181.947540,34.940350 
	C182.003662,34.987640 181.894073,34.886131 181.610992,34.991970 
	C180.929016,35.739487 180.530121,36.381165 179.991669,37.331768 
	C177.220520,40.057945 174.588928,42.475193 171.643158,45.038078 
	C169.205032,46.512821 167.081070,47.841930 164.500793,49.100922 
	C159.730453,48.990505 155.416428,48.950195 151.175262,48.609882 
	C152.200333,47.242115 153.152527,46.174351 154.059479,45.079941 
	C154.014236,45.053288 154.107559,45.117664 154.458023,45.076866 
	C158.536331,42.307644 162.264160,39.579224 166.340820,36.820374 
	C171.474243,32.573914 176.258835,28.357889 181.397919,24.106674 
	C183.885788,21.731104 186.019165,19.390722 188.373245,16.986782 
	C188.875381,16.746262 189.028931,16.492052 189.372864,16.003164 
	C190.521713,14.691599 191.400497,13.568817 192.174454,12.377895 
	C195.524292,7.223302 194.190079,4.597654 187.657272,4.196931 
	C183.518005,6.138924 179.738785,8.023625 175.670013,10.022240 
	C174.575775,10.709143 173.771072,11.282131 172.641937,11.908068 
	C171.822235,12.314181 171.326981,12.667346 170.529205,13.157369 
	C167.797226,15.157222 165.367798,17.020216 162.711670,18.968054 
	C162.187607,19.230009 162.009277,19.489075 161.621887,19.873943 
	C160.495087,20.575846 159.696365,21.233896 158.945847,21.946751 
	C158.994049,22.001553 158.892151,21.894938 158.613068,22.001591 
	C157.934250,22.742588 157.534500,23.376932 156.994553,24.320335 
	C155.203003,26.737352 153.551651,28.845314 151.669525,30.983513 
	C151.438751,31.013748 150.989777,31.136650 150.727264,31.106937 
	C150.276581,31.360447 150.088425,31.643669 149.909744,31.910395 
	C149.919220,31.893898 149.880447,31.902126 149.577087,32.023945 
	C148.811829,33.076355 148.349930,34.006947 147.924896,34.952492 
	C147.961777,34.967449 147.950821,34.888626 147.709412,34.980820 
	C147.366364,35.372581 147.264725,35.672157 147.020752,36.283161 
	C145.226486,38.682678 143.574554,40.770771 141.566681,42.899216 
	C138.421982,44.684669 135.633179,46.429771 132.435791,48.107460 
	C129.966858,47.685619 127.906509,47.331188 125.997154,46.671471 
	C129.781815,42.277828 133.415497,38.189476 137.345612,33.966507 
	C139.110168,32.264973 140.578278,30.698059 142.326843,29.019600 
	C143.023773,28.270836 143.440231,27.633614 143.925598,26.762869 
	C143.994492,26.529345 144.102081,26.054424 144.366272,25.952152 
	C145.080978,25.520256 145.531464,25.190634 146.252014,24.890324 
	C146.824219,24.514988 147.126358,24.110342 147.567520,23.671085 
	C147.706543,23.636471 147.833969,23.379829 148.101074,23.248991 
	C150.109497,20.713640 151.850800,18.309130 153.577454,15.892336 
	C153.562775,15.880055 153.601624,15.866976 153.667419,15.825459 
	C153.733215,15.783942 153.794235,15.640814 154.180283,15.706302 
	C155.081131,15.199488 155.595947,14.627186 156.072052,14.046043 
	C156.033356,14.037203 156.055618,14.113412 156.336761,13.993658 
	C157.146286,13.262774 157.674667,12.651644 158.411560,11.986563 
	C158.887878,11.768380 159.028976,11.529343 159.316681,11.078206 
	C160.094681,10.320614 160.599335,9.700313 161.048676,9.069864 
	C160.993347,9.059718 161.097885,9.104149 161.409622,8.978279 
	C162.528351,7.580132 163.335327,6.307857 164.363556,4.979987 
	C164.868774,4.752245 165.021164,4.500468 165.346695,4.018687 
	C166.100937,2.912211 166.550476,1.956107 167.000000,1.000002 
M32.026958,46.153954 
	C33.064438,45.388996 34.101921,44.624039 35.139400,43.859081 
	C34.867119,43.492569 34.594837,43.126057 34.322556,42.759544 
	C31.843313,44.159008 29.364071,45.558472 26.244936,46.769623 
	C25.213198,45.148792 24.181459,43.527962 22.857773,41.257183 
	C20.212534,36.878670 17.567297,32.500160 14.317189,27.754467 
	C12.822562,24.514761 11.327934,21.275057 9.815689,17.399605 
	C11.053598,12.197629 9.619399,10.485622 2.972044,9.469709 
	C2.972044,27.120945 2.889492,44.739033 3.144279,62.352238 
	C3.162693,63.625191 5.637813,64.862610 7.262855,66.751678 
	C12.156406,69.543213 17.049959,72.334747 22.284647,75.749123 
	C25.984362,77.639870 29.684074,79.530617 33.383789,81.421364 
	C33.733955,80.794861 34.084122,80.168358 34.434288,79.541855 
	C30.285229,77.075027 26.136171,74.608192 21.350561,71.831062 
	C16.933157,68.565468 12.515751,65.299866 8.811413,62.009235 
	C10.312149,60.702362 11.812885,59.395485 13.313622,58.088608 
	C13.070921,57.681717 12.828221,57.274822 12.585521,56.867931 
	C10.563532,57.505341 8.541543,58.142750 6.340800,58.836510 
	C6.340800,52.840763 6.340800,47.039078 6.340800,41.069199 
	C8.455878,41.423290 10.187640,41.713207 12.212687,42.649845 
	C13.925312,43.522758 15.637936,44.395672 17.350559,45.268589 
	C16.087265,42.964516 15.227531,39.621269 11.973150,41.347641 
	C10.906463,40.232212 9.799142,39.152283 8.784760,37.991158 
	C7.811852,36.877502 6.218474,35.724758 6.142055,34.510860 
	C5.831015,29.570131 5.974339,24.598873 6.069625,19.641165 
	C6.073666,19.430912 7.265916,19.243496 7.978147,19.767473 
	C9.948690,23.173958 11.919234,26.580442 13.351418,30.331564 
	C15.626966,34.556400 17.902515,38.781239 20.020285,43.682762 
	C20.425674,45.736900 20.831066,47.791039 21.132381,49.317829 
	C18.876833,51.194004 16.730194,52.979588 14.583556,54.765171 
	C14.996121,55.369473 15.408687,55.973774 15.821252,56.578075 
	C18.681637,55.106789 21.542021,53.635498 24.600290,52.062424 
	C26.174862,53.999660 27.775545,55.969021 29.376228,57.938381 
	C29.856670,57.733471 30.337112,57.528557 30.817554,57.323643 
	C30.308018,55.817101 29.634790,54.342239 29.335358,52.795029 
	C29.040760,51.272812 29.125326,49.677216 29.435677,48.063530 
	C29.435677,48.063530 29.830881,48.075008 30.322197,48.804157 
	C34.853771,48.899216 39.385349,48.994278 44.145508,49.636139 
	C44.484303,50.108128 44.823093,50.580112 45.015553,51.973923 
	C45.010223,58.128132 45.099995,64.284500 44.960297,70.435661 
	C44.888153,73.612144 44.408428,76.779366 43.817528,79.294968 
	C42.205063,76.831711 40.592598,74.368462 38.980133,71.905212 
	C38.337246,72.285355 37.694359,72.665489 37.051472,73.045631 
	C38.697433,76.092239 40.343391,79.138847 41.736458,82.766685 
	C41.536686,82.835487 41.336910,82.904289 40.880268,82.267258 
	C40.320576,82.949432 39.760883,83.631607 39.121258,84.411217 
	C41.486706,86.256866 43.796970,88.059456 46.815449,89.991005 
	C51.684849,87.743134 54.414520,81.933807 53.102707,75.303146 
	C51.631386,77.214142 50.529686,78.645058 49.038788,79.183304 
	C48.973824,69.470871 48.908855,59.758446 48.970028,49.130379 
	C49.647797,44.368053 50.325569,39.605724 51.705460,34.774387 
	C55.828312,32.138748 59.951168,29.503111 64.074020,26.867474 
	C63.891384,26.410139 63.708744,25.952803 63.526104,25.495468 
	C62.435673,25.743729 61.272057,25.825768 60.267136,26.268234 
	C55.169186,28.512856 50.112408,30.850994 44.504784,32.953587 
	C44.057587,32.611267 43.610394,32.268948 42.842491,31.278116 
	C38.241238,28.803865 33.639988,26.329615 28.736235,23.226238 
	C24.145735,21.659885 20.975269,16.349173 15.436008,17.284523 
	C15.195695,17.782581 14.955380,18.280640 14.715067,18.778696 
	C19.130245,21.217672 23.545422,23.656651 28.285446,26.717773 
	C32.843731,29.175911 37.402012,31.634050 42.273556,34.793301 
	C45.554283,38.666908 45.107895,43.306332 44.049492,47.984486 
	C40.069214,47.973289 36.088940,47.962097 32.026550,47.388607 
	C31.979504,47.204979 31.932459,47.021347 32.026958,46.153954 
M303.077515,16.027540 
	C300.533264,16.700876 297.704132,16.888374 295.516968,18.170753 
	C292.794586,19.766916 290.206665,22.775232 292.629700,25.863369 
	C295.266937,29.224537 298.589539,25.977341 300.727081,24.472782 
	C303.095795,22.805492 307.345825,20.719980 303.077515,16.027540 
M203.657974,21.943270 
	C203.806763,20.371885 204.408279,18.639032 203.927872,17.292055 
	C203.656784,16.531956 201.575851,15.986177 200.359848,16.069424 
	C195.292923,16.416311 193.033463,20.205204 190.866669,24.012857 
	C194.794998,28.319836 197.331787,27.953880 203.657974,21.943270 
M76.633003,38.930187 
	C78.267235,35.165257 79.901466,31.400330 81.535698,27.635399 
	C80.752556,27.240768 79.969406,26.846136 79.186264,26.451506 
	C77.263985,29.872969 75.128281,33.199818 73.544899,36.771519 
	C73.047104,37.894421 72.841011,40.846661 76.633003,38.930187 
M66.276070,78.994003 
	C67.474091,77.880165 68.672112,76.766319 70.233154,75.314949 
	C63.617477,73.591888 60.755978,79.628151 54.584625,80.592873 
	C59.586220,82.645004 59.586220,82.645004 66.276070,78.994003 
z"/>
<path fill="#7646D8" opacity="1.000000" stroke="none" 
	d="
M159.043320,11.215498 
	C159.028976,11.529343 158.887878,11.768380 158.066284,12.011621 
	C157.026871,12.764893 156.541245,13.439152 156.055618,14.113411 
	C156.055618,14.113412 156.033356,14.037203 155.696686,14.085268 
	C154.838089,14.635824 154.316162,15.138317 153.794235,15.640812 
	C153.794235,15.640814 153.733215,15.783942 153.522491,15.352226 
	C152.129089,12.595469 155.014297,8.276460 149.867767,7.894384 
	C151.777206,5.770166 153.686646,3.645948 155.298035,1.260865 
	C158.030594,1.000000 161.061188,1.000000 164.538635,1.395999 
	C165.004303,2.584352 165.023132,3.376706 165.041977,4.169060 
	C165.021164,4.500468 164.868774,4.752245 163.995056,5.015420 
	C162.636154,6.439013 161.867020,7.771579 161.097885,9.104147 
	C161.097885,9.104149 160.993347,9.059718 160.699448,9.079327 
	C159.951477,9.804456 159.497391,10.509977 159.043320,11.215498 
z"/>
<path fill="#845FDE" opacity="1.000000" stroke="none" 
	d="
M165.346695,4.018687 
	C165.023132,3.376706 165.004303,2.584352 164.992737,1.395999 
	C165.444443,1.000000 165.888901,1.000000 166.666687,1.000002 
	C166.550476,1.956107 166.100937,2.912211 165.346695,4.018687 
z"/>
<path fill="#7FD6FF" opacity="1.000000" stroke="none" 
	d="
M312.942505,57.872028 
	C321.510406,53.258827 330.200714,48.852531 338.568298,43.900818 
	C340.943878,42.495026 342.114166,39.189053 344.314606,37.315098 
	C346.875763,35.133938 349.765747,33.027870 352.879242,31.901833 
	C355.502899,30.952944 358.650574,31.453032 361.566315,31.311735 
	C362.125916,32.175816 362.685547,33.039894 363.245178,33.903973 
	C358.857971,37.289776 354.470764,40.675575 350.083588,44.061375 
	C350.626984,44.665779 351.170380,45.270184 351.713776,45.874588 
	C354.741058,43.483578 358.011139,41.337410 360.733124,38.638485 
	C364.004913,35.394371 366.895233,32.402348 370.597809,38.104076 
	C366.212158,44.025387 361.423370,50.490952 356.634583,56.956516 
	C356.962799,57.352524 357.291016,57.748531 357.619202,58.144539 
	C358.842651,57.498768 360.452606,57.154495 361.228577,56.159676 
	C367.620911,47.964699 373.829437,39.626575 380.180511,31.398861 
	C380.954681,30.395952 382.666809,28.916714 383.205750,29.178513 
	C384.384460,29.751091 385.720184,31.226141 385.866791,32.465656 
	C386.291229,36.053055 385.558746,39.200470 383.307129,42.561295 
	C377.681763,50.957787 371.057434,58.094093 362.768524,63.876926 
	C358.911743,66.567619 355.251160,68.360115 350.698639,66.141243 
	C346.236877,63.966606 347.211426,60.017704 348.166992,55.291416 
	C345.342407,57.322617 343.244995,58.695633 341.298889,60.257217 
	C336.581512,64.042534 333.538300,63.109779 331.701630,57.722839 
	C324.092041,60.801754 316.453918,63.892212 308.505859,66.564026 
	C312.222504,64.789993 313.841064,62.053074 312.942505,57.872028 
M349.990875,47.250732 
	C349.516418,47.189316 349.041962,47.127903 348.567505,47.066490 
	C348.890015,47.335335 349.212494,47.604179 349.990875,47.250732 
z"/>
<path fill="#7321CF" opacity="1.000000" stroke="none" 
	d="
M129.079605,59.221264 
	C126.971161,60.391418 124.862717,61.561573 122.041992,62.861900 
	C119.276993,64.074501 115.566505,65.043831 115.483490,66.260643 
	C115.238052,69.858231 116.425987,73.553604 117.053223,77.210732 
	C113.081398,88.255684 105.522575,96.413101 95.794479,102.501823 
	C93.935020,103.665642 89.264023,103.659912 88.392426,102.426086 
	C86.205795,99.330757 83.899193,94.986717 84.419571,91.566246 
	C85.893768,81.876266 91.873924,74.085701 97.897697,66.599709 
	C100.985321,62.762600 104.510712,59.277760 108.336166,55.283669 
	C109.552544,53.868351 110.271019,52.803082 110.989502,51.737808 
	C110.989502,51.737812 110.936394,51.459976 111.213783,51.192249 
	C112.008965,50.330727 112.526756,49.736931 113.044540,49.143135 
	C115.656708,46.322655 118.268875,43.502178 121.337082,40.957325 
	C122.310921,44.021179 122.828735,46.809410 123.320473,49.704887 
	C123.294403,49.812130 123.302620,50.036415 123.120422,50.265404 
	C122.969872,50.686890 123.001534,50.879387 122.633163,51.078449 
	C122.147125,51.567989 122.061119,52.050968 121.829536,52.790962 
	C121.445114,53.550362 121.206268,54.052750 121.188980,54.734318 
	C123.230682,55.751457 126.280495,54.880283 126.229523,58.452160 
	C126.226059,58.694920 128.086197,58.964275 129.079605,59.221264 
M112.791618,69.833092 
	C112.577766,68.883339 112.363907,67.933578 111.768883,66.380432 
	C106.936028,65.366714 106.191261,69.924614 104.454567,72.361771 
	C99.740334,78.977417 95.687675,86.064484 91.372734,92.964653 
	C91.923645,93.336617 92.474564,93.708580 93.025475,94.080544 
	C101.358040,87.659630 108.065140,79.885262 112.791618,69.833092 
z"/>
<path fill="#777AE7" opacity="1.000000" stroke="none" 
	d="
M225.010498,62.830513 
	C223.268234,63.889614 221.648682,65.322128 219.762115,65.942062 
	C212.287445,68.398277 209.818466,67.082268 207.346375,59.121811 
	C207.289902,56.311432 207.111511,54.093246 206.796875,51.564621 
	C205.770172,51.121933 204.879669,50.989685 203.985489,50.500164 
	C203.988342,49.428360 203.994888,48.713825 204.307220,47.839546 
	C207.136581,45.662117 209.660156,43.644432 212.183716,41.626747 
	C211.950333,41.240211 211.716949,40.853676 211.483566,40.467140 
	C210.281555,40.632454 209.079544,40.797768 207.877533,40.963081 
	C210.260757,38.435291 212.310196,35.408867 215.124451,33.524956 
	C217.751175,31.766579 221.190353,31.221901 224.271927,30.142994 
	C224.617828,30.633455 224.963745,31.123915 225.309647,31.614376 
	C223.401764,35.210262 221.493896,38.806145 219.586014,42.402031 
	C219.936615,42.639729 220.287216,42.877430 220.637802,43.115128 
	C222.490311,42.174679 224.342804,41.234226 226.838562,40.124012 
	C227.977371,39.590412 228.472946,39.226574 228.968506,38.862740 
	C229.156082,38.599270 229.343658,38.335800 229.940948,38.444939 
	C230.599640,40.253998 230.848618,41.690445 231.097580,43.126896 
	C231.097580,43.126896 231.027222,43.017891 230.731064,43.013969 
	C229.630020,43.615337 228.825150,44.220631 228.020264,44.825920 
	C227.392776,45.335705 226.765289,45.845486 225.703247,46.694962 
	C224.539154,47.700115 223.809616,48.365582 222.943756,49.367027 
	C219.636673,51.897572 214.935333,53.179176 217.603714,59.044411 
	C220.352081,58.100895 223.185562,57.128159 226.141907,56.279480 
	C226.497925,56.226620 226.731064,56.049702 227.040955,55.633728 
	C227.412552,55.315071 227.707413,55.235466 228.001968,55.581902 
	C228.032410,57.716423 228.063156,59.424904 228.093903,61.133385 
	C228.093903,61.133385 228.018265,61.042542 227.723999,61.037037 
	C226.623337,61.631195 225.816925,62.230858 225.010498,62.830513 
z"/>
<path fill="#82D6FF" opacity="1.000000" stroke="none" 
	d="
M304.878235,41.961792 
	C311.357605,35.471268 317.736633,28.571712 328.153534,30.139914 
	C330.340637,30.469170 333.275269,32.078281 334.037201,33.873558 
	C334.800232,35.671494 334.069458,39.326279 332.615265,40.630280 
	C326.379242,46.222298 320.689545,53.346718 310.620575,51.549377 
	C309.801941,51.403252 308.665405,53.038391 307.354919,53.585072 
	C308.697266,51.711727 310.361237,50.099136 312.887329,47.651070 
	C312.887329,45.545834 312.887329,42.040237 312.887329,38.388321 
	C309.754211,39.786240 307.316223,40.874016 304.878235,41.961792 
z"/>
<path fill="#7456DD" opacity="1.000000" stroke="none" 
	d="
M186.030884,33.103489 
	C187.084335,33.066639 188.137772,33.029789 189.694244,33.326073 
	C189.152863,36.144268 188.108444,38.629326 187.064041,41.114384 
	C187.064041,41.114384 187.046402,41.033886 186.715729,41.072216 
	C185.618271,42.447144 184.851501,43.783741 184.084732,45.120338 
	C184.084732,45.120338 184.048767,45.050842 183.844788,45.154430 
	C183.438782,45.543903 183.236771,45.829784 183.034775,46.115669 
	C181.253311,49.804932 179.471848,53.494194 177.690384,57.183453 
	C177.984894,57.490135 178.279404,57.796814 178.573914,58.103497 
	C180.487152,57.146107 182.400406,56.188713 184.787323,55.313423 
	C185.493866,55.216770 185.726715,55.038017 185.959579,54.859264 
	C185.998535,54.499203 186.181885,54.242165 186.807678,54.474014 
	C187.761795,56.944469 188.417908,59.029045 189.074020,61.113621 
	C189.074020,61.113621 189.021362,61.035957 188.719696,61.062546 
	C187.279297,62.007320 186.140594,62.925514 185.001892,63.843712 
	C182.232513,66.883369 178.694687,67.440369 174.332031,66.597488 
	C173.078125,66.107025 172.336502,66.006821 171.594894,65.906616 
	C171.594894,65.906616 171.252777,65.763664 171.460327,65.211044 
	C171.764359,58.069763 171.860840,51.481098 171.957336,44.892441 
	C174.588928,42.475193 177.220520,40.057945 180.308578,37.273788 
	C181.141388,36.233295 181.517731,35.559711 181.894073,34.886131 
	C181.894073,34.886131 182.003662,34.987640 182.266022,34.964996 
	C183.007385,34.582859 183.486359,34.223370 183.965347,33.863876 
	C183.965347,33.863876 183.952560,33.943607 184.223511,33.944157 
	C185.006592,33.664299 185.518738,33.383892 186.030884,33.103489 
z"/>
<path fill="#7036D5" opacity="1.000000" stroke="none" 
	d="
M150.989777,31.136650 
	C150.989777,31.136650 151.438751,31.013748 152.016449,31.185234 
	C153.098602,35.943699 153.603088,40.530682 154.107574,45.117664 
	C154.107559,45.117664 154.014236,45.053288 153.697540,45.048523 
	C152.258621,45.958466 151.136398,46.873169 149.760437,47.963310 
	C149.321793,48.712166 149.136902,49.285576 148.633453,50.074181 
	C147.799133,52.746586 147.283356,55.203800 146.613083,58.396999 
	C149.162354,57.697601 150.503372,57.329689 152.170212,56.958099 
	C152.989807,56.592461 153.483597,56.230495 153.975632,55.908463 
	C153.973877,55.948387 153.895447,55.933006 154.215942,55.923615 
	C155.014130,55.553284 155.491837,55.192345 156.050842,54.609905 
	C156.132126,54.388405 156.497086,54.090698 156.497086,54.090698 
	C156.497086,54.090698 156.966049,54.133575 157.143158,54.430191 
	C161.441376,58.176189 156.485687,60.146240 155.997269,62.844368 
	C151.810623,63.893570 147.665894,65.336548 143.415726,65.788963 
	C141.821625,65.958649 139.982407,63.825527 138.595703,62.354031 
	C139.957443,60.434299 141.735016,58.960766 141.857544,57.360516 
	C142.225632,52.553154 141.948196,47.696369 141.922607,42.858864 
	C143.574554,40.770771 145.226486,38.682678 147.205673,36.146397 
	C147.751160,35.469105 147.890457,35.199245 147.950821,34.888626 
	C147.950821,34.888626 147.961777,34.967449 148.280273,34.908394 
	C149.025986,33.866932 149.453217,32.884529 149.880447,31.902126 
	C149.880447,31.902126 149.919220,31.893898 150.130890,31.839340 
	C150.629044,31.639391 150.844772,31.423347 150.989777,31.136650 
z"/>
<path fill="#7995EE" opacity="1.000000" stroke="none" 
	d="
M251.957916,36.854080 
	C252.413757,36.280811 252.869598,35.707542 254.009277,35.076607 
	C255.757523,36.832275 256.821930,38.645603 257.886322,40.458935 
	C257.886322,40.458935 257.780334,40.734371 257.346863,40.680061 
	C256.624817,41.135349 256.336212,41.644947 256.047638,42.154541 
	C256.037506,42.491596 255.889084,42.748890 255.137482,43.098564 
	C254.460220,43.551224 254.247864,43.831745 254.035492,44.112267 
	C253.301468,45.846226 252.567429,47.580181 251.577774,49.689732 
	C250.824295,50.609699 250.326431,51.154072 249.661621,51.920418 
	C248.587997,53.503304 247.681320,54.864223 246.774628,56.225143 
	C247.017136,56.457668 247.259659,56.690193 247.502167,56.922722 
	C248.297256,56.603115 249.092331,56.283512 250.232727,55.970840 
	C255.896637,54.840919 254.543411,58.308899 254.131912,61.126900 
	C254.131912,61.126900 254.028748,60.998703 253.728592,61.022221 
	C252.621887,61.640221 251.815323,62.234703 251.008759,62.829193 
	C248.005707,66.139961 244.245270,67.424217 239.485657,66.547417 
	C239.060730,60.342899 238.996796,54.591763 238.936569,48.674629 
	C238.940292,48.508625 238.941788,48.176540 238.941788,48.176540 
	C242.914154,44.986279 246.886536,41.796013 251.198425,38.145191 
	C251.747665,37.443047 251.887665,37.166195 251.957916,36.854080 
z"/>
<path fill="#7AB1F5" opacity="1.000000" stroke="none" 
	d="
M278.005463,66.831161 
	C274.583557,67.477089 271.015076,67.359253 269.511200,63.863335 
	C268.146515,60.690865 266.110596,57.017094 269.719788,53.566879 
	C270.257538,53.052803 269.550659,51.236717 269.050110,49.998966 
	C268.680695,49.974968 268.669220,50.023411 268.669220,50.023415 
	C271.734222,46.895538 274.799225,43.767662 278.349426,40.269356 
	C280.304626,39.044964 281.774689,38.191002 284.042389,36.873672 
	C284.042389,40.209187 284.042389,42.666214 284.042389,45.123241 
	C281.907562,49.152786 279.772705,53.182335 277.013916,58.389599 
	C279.340851,57.643169 280.300659,57.335285 281.688812,57.456650 
	C282.739227,60.205772 283.361298,62.525642 283.983337,64.845520 
	C283.983337,64.845520 283.576202,64.991219 282.968201,65.003967 
	C280.908630,65.621521 279.457062,66.226341 278.005463,66.831161 
z"/>
<path fill="#7BCBFC" opacity="1.000000" stroke="none" 
	d="
M304.573242,42.079407 
	C307.316223,40.874016 309.754211,39.786240 312.887329,38.388321 
	C312.887329,42.040237 312.887329,45.545834 312.887329,47.651070 
	C310.361237,50.099136 308.697266,51.711727 307.036957,53.719833 
	C307.040619,55.261570 307.040619,56.407791 307.040619,57.982456 
	C308.837708,57.982456 310.467163,57.982456 312.519531,57.927242 
	C313.841064,62.053074 312.222504,64.789993 308.102020,66.488373 
	C300.628693,67.206505 298.018494,64.631561 298.197693,56.219780 
	C298.920563,52.286510 299.436707,49.082970 299.952820,45.879425 
	C301.391296,44.651958 302.829773,43.424492 304.573242,42.079407 
z"/>
<path fill="#7428D1" opacity="1.000000" stroke="none" 
	d="
M7.904633,19.045443 
	C7.265916,19.243496 6.073666,19.430912 6.069625,19.641165 
	C5.974339,24.598873 5.831015,29.570131 6.142055,34.510860 
	C6.218474,35.724758 7.811852,36.877502 8.784760,37.991158 
	C9.799142,39.152283 10.906463,40.232212 11.918194,41.691223 
	C11.863236,42.034801 11.919402,42.003128 11.919402,42.003128 
	C10.187640,41.713207 8.455878,41.423290 6.340800,41.069199 
	C6.340800,47.039078 6.340800,52.840763 6.340800,58.836510 
	C8.541543,58.142750 10.563532,57.505341 12.585521,56.867931 
	C12.828221,57.274822 13.070921,57.681717 13.313622,58.088608 
	C11.812885,59.395485 10.312149,60.702362 8.167688,62.248718 
	C7.339542,63.697651 7.155119,64.907104 6.970697,66.116554 
	C5.637813,64.862610 3.162693,63.625191 3.144279,62.352238 
	C2.889492,44.739033 2.972044,27.120945 2.972044,9.469709 
	C9.619399,10.485622 11.053598,12.197629 9.580564,17.839512 
	C8.865170,18.534761 8.384901,18.790102 7.904633,19.045443 
z"/>
<path fill="#7EC8FB" opacity="1.000000" stroke="none" 
	d="
M90.831970,48.007267 
	C90.831970,48.007267 90.985886,48.434303 90.977379,49.018028 
	C91.026802,50.079090 91.084732,50.556431 91.142662,51.033768 
	C91.096138,54.029324 91.151245,57.030754 90.978363,60.019001 
	C90.741089,64.120522 88.657906,66.245049 83.721062,65.841156 
	C84.680557,64.586220 85.326378,63.741547 86.144524,62.671482 
	C84.855606,61.683075 83.625031,60.739407 81.706635,59.268291 
	C84.119247,59.102081 85.799553,58.986324 87.990509,58.835384 
	C87.990509,56.585205 87.990509,54.296688 87.993042,51.283875 
	C87.992744,50.370724 87.989922,50.181862 88.014526,49.747536 
	C88.041954,49.502079 87.978615,49.012207 87.985352,48.730225 
	C87.978485,48.260693 87.964890,48.073147 87.972809,47.473640 
	C87.339111,44.773998 86.683891,42.486309 85.999878,39.878445 
	C85.947876,39.345207 85.924683,39.132153 85.901497,38.919102 
	C86.898911,32.427841 87.896332,25.936579 88.980110,18.883253 
	C85.672386,19.317514 82.537758,21.990591 82.761673,17.463064 
	C80.511703,17.816963 78.396286,18.149698 76.280869,18.482433 
	C76.050026,17.770660 75.819176,17.058887 75.588333,16.347115 
	C80.131805,13.896664 84.675285,11.446213 89.602386,9.529847 
	C89.990097,20.469885 89.946564,30.876247 90.036041,41.281467 
	C90.055336,43.525517 90.554077,45.765442 90.831970,48.007267 
z"/>
<path fill="#7040D7" opacity="1.000000" stroke="none" 
	d="
M154.458038,45.076866 
	C153.603088,40.530682 153.098602,35.943699 152.247223,31.154997 
	C153.551651,28.845314 155.203003,26.737352 157.305557,24.259388 
	C158.135223,23.224567 158.513687,22.559753 158.892151,21.894939 
	C158.892151,21.894938 158.994049,22.001553 159.285400,21.956106 
	C160.367813,21.217136 161.158905,20.523613 161.949982,19.830091 
	C162.009277,19.489075 162.187607,19.230009 162.858765,19.294147 
	C164.166855,21.726921 165.101196,23.918444 165.925262,26.392010 
	C164.913345,27.462397 164.011703,28.250738 162.757965,29.068525 
	C161.256119,30.725351 160.106369,32.352730 158.771027,34.105122 
	C158.589584,34.568020 158.593750,34.905907 158.597900,35.243793 
	C158.762756,34.861263 158.927582,34.478729 159.445312,34.059906 
	C160.265335,33.955753 160.732498,33.887894 161.496048,33.856621 
	C162.239853,33.603649 162.687256,33.314091 163.466095,32.982388 
	C164.276276,32.157059 164.755051,31.373877 165.223541,30.544891 
	C165.213226,30.499086 165.199997,30.406118 165.558929,30.571314 
	C170.395447,32.720623 165.536224,34.817932 165.992004,36.850803 
	C162.264160,39.579224 158.536331,42.307644 154.458038,45.076866 
z"/>
<path fill="#712CD2" opacity="1.000000" stroke="none" 
	d="
M141.566681,42.899216 
	C141.948196,47.696369 142.225632,52.553154 141.857544,57.360516 
	C141.735016,58.960766 139.957443,60.434299 138.542877,61.980072 
	C137.765732,60.901653 137.382202,59.808926 137.408966,58.271320 
	C139.447998,55.851337 140.030563,54.080967 136.882660,53.040676 
	C134.829529,54.614994 132.776382,56.189316 130.199753,58.016708 
	C129.485809,58.540577 129.295349,58.811378 129.104904,59.082176 
	C129.104904,59.082176 129.130417,59.157356 129.105011,59.189308 
	C128.086197,58.964275 126.226059,58.694920 126.229523,58.452160 
	C126.280495,54.880283 123.230682,55.751457 121.519348,54.480484 
	C122.099442,53.322243 122.570740,52.597012 123.036095,51.915874 
	C123.030151,51.959969 122.942192,51.946518 123.199707,52.265720 
	C124.221497,52.400074 124.985786,52.215221 126.110519,52.064644 
	C127.558655,51.675983 128.646332,51.253044 130.012482,50.752586 
	C130.566055,50.186478 130.841171,49.697887 131.369141,49.138565 
	C132.029449,48.770180 132.436905,48.472523 132.844376,48.174866 
	C135.633179,46.429771 138.421982,44.684669 141.566681,42.899216 
z"/>
<path fill="#7775E5" opacity="1.000000" stroke="none" 
	d="
M44.963261,47.883751 
	C45.107895,43.306332 45.554283,38.666908 42.161671,34.119465 
	C42.420925,32.939297 42.792065,32.432961 43.163200,31.926624 
	C43.610394,32.268948 44.057587,32.611267 44.980633,33.270161 
	C47.305435,34.005623 49.154385,34.424511 51.003342,34.843399 
	C50.325569,39.605724 49.647797,44.368053 48.599922,49.871082 
	C48.157169,61.088997 48.084522,71.566208 47.981705,82.360550 
	C47.547951,83.143677 47.144367,83.609665 46.547089,83.863953 
	C46.207260,83.100471 46.061123,82.548691 45.945251,81.528870 
	C45.987000,75.604843 46.110889,70.146049 45.975201,64.693726 
	C45.861938,60.142590 45.444572,55.599022 45.161888,51.052101 
	C44.823093,50.580112 44.484303,50.108128 44.265446,49.217987 
	C44.578007,48.494473 44.770634,48.189110 44.963261,47.883751 
z"/>
<path fill="#784FDB" opacity="1.000000" stroke="none" 
	d="
M156.344543,62.810066 
	C156.485687,60.146240 161.441376,58.176189 157.449585,54.298447 
	C158.716507,53.223965 159.854095,52.577839 161.310150,51.906303 
	C162.738129,50.977608 163.847610,50.074326 164.957108,49.171036 
	C167.081070,47.841930 169.205032,46.512821 171.643158,45.038078 
	C171.860840,51.481098 171.764359,58.069763 171.389984,65.039520 
	C170.128952,64.162781 169.145813,62.904942 168.460266,61.259293 
	C168.560760,59.915207 168.363632,58.958931 168.166504,58.002655 
	C168.031891,57.201778 167.897263,56.400906 167.724930,55.375690 
	C163.969452,57.894543 160.330643,60.335155 156.344543,62.810066 
z"/>
<path fill="#6F25D0" opacity="1.000000" stroke="none" 
	d="
M123.346542,49.597645 
	C122.828735,46.809410 122.310921,44.021179 121.629913,40.782806 
	C121.466721,40.332661 121.502403,40.349312 121.827660,40.412865 
	C122.415573,39.939781 122.678238,39.403141 122.940895,38.866501 
	C125.721748,35.653046 128.502609,32.439590 131.904877,29.231113 
	C134.033920,30.857771 135.541534,32.479450 137.049164,34.101128 
	C133.415497,38.189476 129.781815,42.277828 125.708549,46.740345 
	C124.869148,47.754871 124.469345,48.395226 123.900345,49.191059 
	C123.731155,49.346539 123.346542,49.597645 123.346542,49.597645 
z"/>
<path fill="#7E72E4" opacity="1.000000" stroke="none" 
	d="
M206.933105,51.875061 
	C207.111511,54.093246 207.289902,56.311432 207.193817,58.784302 
	C204.087738,60.773010 201.106186,62.306633 198.459183,64.287384 
	C194.349960,67.362305 192.023499,65.682167 190.264481,61.102051 
	C193.073181,58.587429 194.259689,53.571163 199.502060,55.900635 
	C200.185516,55.636383 200.581726,55.326988 200.980408,55.001389 
	C200.982910,54.985188 201.015396,54.980675 201.313965,55.080662 
	C202.038544,54.785000 202.464539,54.389351 202.947784,53.746880 
	C203.023560,53.332150 203.042084,53.164242 203.028076,52.994888 
	C202.995544,52.993439 202.998169,53.058506 203.351776,53.034065 
	C204.781281,52.631435 205.857208,52.253246 206.933105,51.875061 
z"/>
<path fill="#7DACF3" opacity="1.000000" stroke="none" 
	d="
M268.756775,49.578411 
	C268.669220,50.023411 268.680695,49.974968 268.690979,49.976364 
	C267.370361,50.940094 266.039429,51.902431 264.415131,52.615959 
	C265.005951,49.223587 266.507629,45.774857 260.896606,45.841351 
	C264.524902,41.087959 268.116699,36.305775 271.820282,31.611774 
	C272.385620,30.895218 273.467987,30.586599 274.311249,30.089317 
	C274.859100,31.724964 276.244049,33.650692 275.796722,34.941448 
	C274.493469,38.702206 272.473633,42.217014 270.699310,45.810749 
	C270.138458,46.946682 269.465820,48.027416 268.756775,49.578411 
z"/>
<path fill="#785DDF" opacity="1.000000" stroke="none" 
	d="
M189.054565,16.160589 
	C189.028931,16.492052 188.875381,16.746262 188.037720,17.000931 
	C186.326797,17.720278 185.172134,18.361917 183.713074,18.846413 
	C181.959747,18.126259 180.510788,17.563250 178.841827,16.809246 
	C178.081345,16.417189 177.540848,16.216125 176.996552,15.617657 
	C176.648346,13.449611 176.303955,11.678969 175.959549,9.908327 
	C179.738785,8.023625 183.518005,6.138924 187.821777,4.539579 
	C188.582397,8.603487 188.818481,12.382038 189.054565,16.160589 
M182.693604,11.407886 
	C182.295975,12.019354 181.898346,12.630821 181.500702,13.242289 
	C182.075699,13.367142 182.650711,13.491995 183.225708,13.616847 
	C183.255234,12.915287 183.284775,12.213727 182.693604,11.407886 
z"/>
<path fill="#7363E1" opacity="1.000000" stroke="none" 
	d="
M199.214798,55.855499 
	C194.259689,53.571163 193.073181,58.587429 190.115173,60.783180 
	C189.959930,61.093739 189.515305,61.031498 189.294662,61.072559 
	C188.417908,59.029045 187.761795,56.944469 187.051804,54.503998 
	C188.580063,52.830845 190.162201,51.513580 192.457077,49.602921 
	C194.763214,48.457794 197.998001,46.851528 201.849380,45.248436 
	C202.977768,46.167503 203.489594,47.083397 204.001419,47.999290 
	C203.994888,48.713825 203.988342,49.428360 203.662903,50.701401 
	C203.228729,51.859436 203.113449,52.458969 202.998169,53.058506 
	C202.998169,53.058506 202.995544,52.993439 202.696869,52.699707 
	C201.921783,53.115437 201.445374,53.824894 201.022614,54.641563 
	C201.076233,54.748775 201.015396,54.980675 201.015396,54.980675 
	C201.015396,54.980675 200.982910,54.985188 200.728577,55.092400 
	C200.054413,55.418243 199.634613,55.636875 199.214798,55.855499 
z"/>
<path fill="#7758DD" opacity="1.000000" stroke="none" 
	d="
M179.061844,17.000238 
	C180.510788,17.563250 181.959747,18.126259 183.554138,19.143784 
	C182.814209,21.112820 181.928818,22.627342 181.043442,24.141865 
	C176.258835,28.357889 171.474243,32.573914 166.340820,36.820374 
	C165.536224,34.817932 170.395447,32.720623 165.773773,30.298841 
	C169.059494,26.600960 172.489304,23.340746 176.263031,20.037678 
	C177.425247,18.996626 178.243546,17.998430 179.061844,17.000238 
z"/>
<path fill="#7C8DEB" opacity="1.000000" stroke="none" 
	d="
M238.932861,48.840630 
	C238.996796,54.591763 239.060730,60.342899 239.063721,66.488144 
	C234.264694,65.193939 236.685471,61.015179 235.717239,57.430744 
	C233.380524,58.646820 231.096039,59.835724 228.452728,61.079002 
	C228.063156,59.424904 228.032410,57.716423 228.312653,55.440506 
	C229.765274,52.982250 234.151230,52.953922 232.362076,49.109482 
	C234.845825,49.007618 236.889343,48.924122 238.932861,48.840630 
z"/>
<path fill="#6D33D4" opacity="1.000000" stroke="none" 
	d="
M149.887299,7.923410 
	C155.014297,8.276460 152.129089,12.595469 153.456696,15.393743 
	C153.601624,15.866976 153.562775,15.880055 153.203568,15.992538 
	C151.174225,18.529957 149.504105,20.954893 147.833969,23.379829 
	C147.833969,23.379829 147.706543,23.636471 147.287933,23.541294 
	C146.573532,23.917751 146.277756,24.389383 145.981964,24.861015 
	C145.531464,25.190634 145.080978,25.520256 144.095642,25.709324 
	C142.332794,23.696747 141.104782,21.824720 139.876755,19.952696 
	C141.681595,17.710352 143.486420,15.468006 145.949585,13.037233 
	C146.796829,12.126110 146.985718,11.403413 147.174622,10.680716 
	C147.174622,10.680716 147.340057,10.442775 147.798584,10.499214 
	C148.473038,10.008574 148.688965,9.461494 148.904892,8.914417 
	C148.904892,8.914418 148.957047,8.914966 149.179504,8.834038 
	C149.588242,8.471382 149.774506,8.189655 149.960770,7.907930 
	C149.960770,7.907932 149.906815,7.952437 149.887299,7.923410 
z"/>
<path fill="#827DE6" opacity="1.000000" stroke="none" 
	d="
M29.043518,48.113815 
	C29.125326,49.677216 29.040760,51.272812 29.335358,52.795029 
	C29.634790,54.342239 30.308018,55.817101 30.817554,57.323643 
	C30.337112,57.528557 29.856670,57.733471 29.376228,57.938381 
	C27.775545,55.969021 26.174862,53.999660 24.600290,52.062424 
	C21.542021,53.635498 18.681637,55.106789 15.821252,56.578075 
	C15.408687,55.973774 14.996121,55.369473 14.583556,54.765171 
	C16.730194,52.979588 18.876833,51.194004 21.132381,49.317829 
	C20.831066,47.791039 20.425674,45.736900 20.415903,43.301449 
	C21.590921,42.582470 22.370321,42.244801 23.149721,41.907135 
	C24.181459,43.527962 25.213198,45.148792 26.883884,46.909756 
	C28.029730,47.404530 28.536623,47.759174 29.043518,48.113815 
z"/>
<path fill="#734CDA" opacity="1.000000" stroke="none" 
	d="
M175.670013,10.022241 
	C176.303955,11.678969 176.648346,13.449611 176.770538,15.789306 
	C176.032013,16.905140 175.515686,17.451920 174.695312,18.037407 
	C173.928650,18.664268 173.466049,19.252420 172.696304,19.982853 
	C170.271271,22.120073 168.153397,24.115017 166.035522,26.109962 
	C165.101196,23.918444 164.166855,21.726921 163.085434,19.209305 
	C165.367798,17.020216 167.797226,15.157222 170.854309,13.124949 
	C171.976776,12.588820 172.471573,12.221971 172.966385,11.855121 
	C173.771072,11.282131 174.575775,10.709143 175.670013,10.022241 
z"/>
<path fill="#81C7FB" opacity="1.000000" stroke="none" 
	d="
M303.465088,16.178654 
	C307.345825,20.719980 303.095795,22.805492 300.727081,24.472782 
	C298.589539,25.977341 295.266937,29.224537 292.629700,25.863369 
	C290.206665,22.775232 292.794586,19.766916 295.516968,18.170753 
	C297.704132,16.888374 300.533264,16.700876 303.465088,16.178654 
z"/>
<path fill="#8075E4" opacity="1.000000" stroke="none" 
	d="
M203.371109,22.203117 
	C197.331787,27.953880 194.794998,28.319836 190.866669,24.012857 
	C193.033463,20.205204 195.292923,16.416311 200.359848,16.069424 
	C201.575851,15.986177 203.656784,16.531956 203.927872,17.292055 
	C204.408279,18.639032 203.806763,20.371885 203.371109,22.203117 
z"/>
<path fill="#7DC1F9" opacity="1.000000" stroke="none" 
	d="
M299.582336,45.927708 
	C299.436707,49.082970 298.920563,52.286510 298.173157,55.805557 
	C295.550385,57.679939 293.158966,59.238819 290.416412,60.541264 
	C289.429871,57.861809 288.794464,55.438793 288.159027,53.015778 
	C291.843292,50.669182 295.527588,48.322582 299.582336,45.927708 
z"/>
<path fill="#7DA2F1" opacity="1.000000" stroke="none" 
	d="
M260.898682,45.859398 
	C266.507629,45.774857 265.005951,49.223587 264.103333,52.767529 
	C264.059296,53.507847 263.902527,53.769062 263.152069,54.008713 
	C262.511047,54.402504 262.332581,54.739143 262.154083,55.075775 
	C259.710541,57.062855 257.266998,59.049934 254.477692,61.081955 
	C254.543411,58.308899 255.896637,54.840919 250.354050,55.669952 
	C251.036331,54.902092 251.942612,54.442055 253.122269,53.903671 
	C253.590973,53.520504 253.786270,53.215683 253.981094,52.947327 
	C253.980606,52.983788 253.908173,52.975204 254.186157,52.920078 
	C254.634048,52.546696 254.803925,52.228443 254.944305,51.966766 
	C254.914810,52.023342 254.795807,51.977253 255.108200,52.002518 
	C255.585449,51.321312 255.750305,50.614849 255.915161,49.908386 
	C256.708862,49.336456 257.502533,48.764526 258.917053,48.036823 
	C259.981598,47.216942 260.425262,46.552830 260.868927,45.888718 
	C260.868927,45.888721 260.900726,45.877441 260.898682,45.859398 
z"/>
<path fill="#6D2CD2" opacity="1.000000" stroke="none" 
	d="
M139.573792,20.090984 
	C141.104782,21.824720 142.332794,23.696747 143.831451,25.811598 
	C144.102081,26.054424 143.994492,26.529345 143.615265,26.827766 
	C142.839508,27.794508 142.442947,28.462828 142.046387,29.131145 
	C140.578278,30.698059 139.110168,32.264973 137.345612,33.966507 
	C135.541534,32.479450 134.033920,30.857771 132.209351,29.092415 
	C134.351868,26.042248 136.811356,23.135761 139.573792,20.090984 
z"/>
<path fill="#8379E5" opacity="1.000000" stroke="none" 
	d="
M62.176468,56.994141 
	C63.093647,54.945869 64.010826,52.897598 64.811020,51.110588 
	C63.149605,48.848091 61.590546,46.724972 60.014580,44.242096 
	C59.997681,43.882339 59.975368,43.945992 59.975368,43.945992 
	C63.032551,44.641514 66.089729,45.337032 69.543320,46.288704 
	C69.939728,46.544857 69.899658,46.902332 69.563416,46.995476 
	C68.920250,47.741779 68.613319,48.394936 68.306389,49.048088 
	C69.507080,49.301609 70.707771,49.555130 72.219513,49.894470 
	C72.740166,50.028679 72.949776,50.077065 73.252701,50.377190 
	C73.592758,51.104713 73.839516,51.580490 74.086266,52.056267 
	C72.538048,52.213371 70.989838,52.370480 69.178108,52.554329 
	C67.837547,54.451927 66.272255,56.667648 64.324493,58.688736 
	C63.353504,57.994114 62.764984,57.494129 62.176468,56.994141 
z"/>
<path fill="#7EBBF8" opacity="1.000000" stroke="none" 
	d="
M284.357971,44.984634 
	C284.042389,42.666214 284.042389,40.209187 284.042389,36.873672 
	C281.774689,38.191002 280.304626,39.044964 278.493042,39.948784 
	C281.298767,33.342983 286.877350,31.348986 293.202881,34.919353 
	C290.333038,38.259335 287.503296,41.552685 284.357971,44.984634 
z"/>
<path fill="#89BBF7" opacity="1.000000" stroke="none" 
	d="
M45.914982,81.996910 
	C46.061123,82.548691 46.207260,83.100471 46.540936,84.226082 
	C46.521397,86.487289 46.314316,88.174667 46.107235,89.862045 
	C43.796970,88.059456 41.486706,86.256866 39.121258,84.411217 
	C39.760883,83.631607 40.320576,82.949432 41.103035,82.801544 
	C41.714561,83.410423 42.103317,83.485023 42.492073,83.559624 
	C42.324497,83.101570 42.156925,82.643509 41.989349,82.185455 
	C40.343391,79.138847 38.697433,76.092239 37.051472,73.045631 
	C37.694359,72.665489 38.337246,72.285355 38.980133,71.905212 
	C40.592598,74.368462 42.205063,76.831711 43.984856,79.932739 
	C44.739784,81.045975 45.327381,81.521439 45.914982,81.996910 
z"/>
<path fill="#8495ED" opacity="1.000000" stroke="none" 
	d="
M231.413391,42.975704 
	C230.848618,41.690445 230.599640,40.253998 230.191101,38.488380 
	C232.393082,36.271549 234.636368,34.195621 237.180038,32.597881 
	C238.075806,32.035233 239.707047,32.643456 241.002472,32.717075 
	C240.863174,34.115440 241.258301,36.150871 240.488022,36.797070 
	C237.785095,39.064507 234.681000,40.853733 231.413391,42.975704 
z"/>
<path fill="#B1E4FE" opacity="1.000000" stroke="none" 
	d="
M90.909157,47.543373 
	C90.554077,45.765442 90.055336,43.525517 90.036041,41.281467 
	C89.946564,30.876247 89.990097,20.469885 89.975021,9.604681 
	C90.641357,10.419911 91.921333,11.703689 91.901840,12.967421 
	C91.726410,24.340109 91.322891,35.709274 90.909157,47.543373 
z"/>
<path fill="#8044D7" opacity="1.000000" stroke="none" 
	d="
M7.116776,66.434113 
	C7.155119,64.907104 7.339542,63.697651 7.811155,62.261230 
	C12.515751,65.299866 16.933157,68.565468 21.672249,72.359573 
	C21.977127,73.634148 21.960320,74.380219 21.943512,75.126289 
	C17.049959,72.334747 12.156406,69.543213 7.116776,66.434113 
z"/>
<path fill="#7EBAF7" opacity="1.000000" stroke="none" 
	d="
M288.087097,53.225510 
	C288.794464,55.438793 289.429871,57.861809 290.112305,60.692360 
	C290.159302,61.099888 290.125336,61.124268 289.752502,61.096771 
	C288.254944,61.999199 287.130280,62.929123 286.005585,63.859047 
	C285.530182,64.206383 285.054749,64.553711 284.281372,64.873276 
	C283.361298,62.525642 282.739227,60.205772 282.060791,57.524723 
	C283.453491,56.168457 284.902618,55.173367 286.809570,54.288094 
	C287.497864,54.223637 287.728302,54.049362 287.958740,53.875092 
	C287.958740,53.875095 288.015167,53.435246 288.087097,53.225510 
z"/>
<path fill="#7946D8" opacity="1.000000" stroke="none" 
	d="
M46.461342,89.926529 
	C46.314316,88.174667 46.521397,86.487289 46.734627,84.437782 
	C47.144367,83.609665 47.547951,83.143677 48.286957,82.246078 
	C48.890911,81.234970 49.159447,80.655479 49.427982,80.075981 
	C50.529686,78.645058 51.631386,77.214142 53.102707,75.303146 
	C54.414520,81.933807 51.684849,87.743134 46.461342,89.926529 
z"/>
<path fill="#8291EC" opacity="1.000000" stroke="none" 
	d="
M51.354401,34.808891 
	C49.154385,34.424511 47.305435,34.005623 45.248844,33.371552 
	C50.112408,30.850994 55.169186,28.512856 60.267136,26.268234 
	C61.272057,25.825768 62.435673,25.743729 63.526104,25.495468 
	C63.708744,25.952803 63.891384,26.410139 64.074020,26.867474 
	C59.951168,29.503111 55.828312,32.138748 51.354401,34.808891 
z"/>
<path fill="#886FE2" opacity="1.000000" stroke="none" 
	d="
M23.003746,41.582157 
	C22.370321,42.244801 21.590921,42.582470 20.494793,42.963104 
	C17.902515,38.781239 15.626966,34.556400 13.877068,30.025391 
	C14.575830,29.186693 14.748944,28.654169 14.922059,28.121647 
	C17.567297,32.500160 20.212534,36.878670 23.003746,41.582157 
z"/>
<path fill="#8CA7F1" opacity="1.000000" stroke="none" 
	d="
M76.361748,39.181038 
	C72.841011,40.846661 73.047104,37.894421 73.544899,36.771519 
	C75.128281,33.199818 77.263985,29.872969 79.186264,26.451506 
	C79.969406,26.846136 80.752556,27.240768 81.535698,27.635399 
	C79.901466,31.400330 78.267235,35.165257 76.361748,39.181038 
z"/>
<path fill="#8571E3" opacity="1.000000" stroke="none" 
	d="
M43.002846,31.602371 
	C42.792065,32.432961 42.420925,32.939297 42.005043,33.768909 
	C37.402012,31.634050 32.843731,29.175911 28.251469,26.123049 
	C28.491240,24.970671 28.764988,24.413017 29.038734,23.855364 
	C33.639988,26.329615 38.241238,28.803865 43.002846,31.602371 
z"/>
<path fill="#856AE1" opacity="1.000000" stroke="none" 
	d="
M62.015236,57.314758 
	C62.764984,57.494129 63.353504,57.994114 63.991940,58.806717 
	C62.427864,62.903126 60.813873,66.686913 59.199886,70.470703 
	C58.552250,70.201698 57.904617,69.932686 57.256985,69.663681 
	C55.285172,64.518845 60.115314,61.577950 62.015236,57.314758 
z"/>
<path fill="#8156DC" opacity="1.000000" stroke="none" 
	d="
M28.887486,23.540802 
	C28.764988,24.413017 28.491240,24.970671 28.089046,25.811975 
	C23.545422,23.656651 19.130245,21.217672 14.715067,18.778696 
	C14.955380,18.280640 15.195695,17.782581 15.436008,17.284523 
	C20.975269,16.349173 24.145735,21.659885 28.887486,23.540802 
z"/>
<path fill="#8AA5F1" opacity="1.000000" stroke="none" 
	d="
M65.913589,79.036156 
	C59.586220,82.645004 59.586220,82.645004 54.584625,80.592873 
	C60.755978,79.628151 63.617477,73.591888 70.233154,75.314949 
	C68.672112,76.766319 67.474091,77.880165 65.913589,79.036156 
z"/>
<path fill="#8358DC" opacity="1.000000" stroke="none" 
	d="
M91.599617,51.018681 
	C91.084732,50.556431 91.026802,50.079090 91.010651,49.242538 
	C98.068512,48.928917 105.084602,48.974506 112.572617,49.081615 
	C112.526756,49.736931 112.008965,50.330727 111.216919,51.050850 
	C104.647293,51.119320 98.351936,51.061459 91.599617,51.018681 
z"/>
<path fill="#7C68E1" opacity="1.000000" stroke="none" 
	d="
M189.372864,16.003164 
	C188.818481,12.382038 188.582397,8.603487 188.181808,4.482288 
	C194.190079,4.597654 195.524292,7.223302 192.174454,12.377895 
	C191.400497,13.568817 190.521713,14.691599 189.372864,16.003164 
z"/>
<path fill="#81A5F1" opacity="1.000000" stroke="none" 
	d="
M258.135742,40.278683 
	C256.821930,38.645603 255.757523,36.832275 254.275116,34.987572 
	C256.364655,30.682451 259.378571,31.535978 263.146454,34.446690 
	C261.518219,36.379433 259.951721,38.238934 258.135742,40.278683 
z"/>
<path fill="#7B54DC" opacity="1.000000" stroke="none" 
	d="
M22.114079,75.437706 
	C21.960320,74.380219 21.977127,73.634148 21.990524,72.514725 
	C26.136171,74.608192 30.285229,77.075027 34.434288,79.541855 
	C34.084122,80.168358 33.733955,80.794861 33.383789,81.421364 
	C29.684074,79.530617 25.984362,77.639870 22.114079,75.437706 
z"/>
<path fill="#7974E5" opacity="1.000000" stroke="none" 
	d="
M204.307220,47.839546 
	C203.489594,47.083397 202.977768,46.167503 202.171310,45.101517 
	C203.671600,43.713459 205.466553,42.475494 207.569519,41.100304 
	C209.079544,40.797768 210.281555,40.632454 211.483566,40.467140 
	C211.716949,40.853676 211.950333,41.240211 212.183716,41.626747 
	C209.660156,43.644432 207.136581,45.662117 204.307220,47.839546 
z"/>
<path fill="#BEC0F4" opacity="1.000000" stroke="none" 
	d="
M45.945251,81.528870 
	C45.327381,81.521439 44.739784,81.045975 44.132519,80.260635 
	C44.408428,76.779366 44.888153,73.612144 44.960297,70.435661 
	C45.099995,64.284500 45.010223,58.128132 45.088718,51.513012 
	C45.444572,55.599022 45.861938,60.142590 45.975201,64.693726 
	C46.110889,70.146049 45.987000,75.604843 45.945251,81.528870 
z"/>
<path fill="#EBEAFB" opacity="1.000000" stroke="none" 
	d="
M49.233383,79.629639 
	C49.159447,80.655479 48.890911,81.234970 48.317123,81.928940 
	C48.084522,71.566208 48.157169,61.088997 48.536850,50.328903 
	C48.908855,59.758446 48.973824,69.470871 49.233383,79.629639 
z"/>
<path fill="#8B49D7" opacity="1.000000" stroke="none" 
	d="
M117.411972,76.978149 
	C116.425987,73.553604 115.238052,69.858231 115.483490,66.260643 
	C115.566505,65.043831 119.276993,64.074501 121.726494,63.012833 
	C121.269463,63.695797 120.206406,64.209969 119.609436,65.053848 
	C118.641563,66.422058 117.474869,67.951889 117.305901,69.512428 
	C117.049652,71.878952 117.576530,74.330269 117.411972,76.978149 
z"/>
<path fill="#8672E3" opacity="1.000000" stroke="none" 
	d="
M164.500793,49.100925 
	C163.847610,50.074326 162.738129,50.977608 161.297348,51.481163 
	C156.961380,50.673954 152.956696,50.266472 148.951996,49.858986 
	C149.136902,49.285576 149.321793,48.712166 149.871429,48.216164 
	C150.524918,48.499012 150.813660,48.704453 151.102386,48.909889 
	C155.416428,48.950195 159.730453,48.990505 164.500793,49.100925 
z"/>
<path fill="#7641D7" opacity="1.000000" stroke="none" 
	d="
M14.619624,27.938057 
	C14.748944,28.654169 14.575830,29.186693 14.146247,29.853071 
	C11.919234,26.580442 9.948690,23.173958 7.941390,19.406458 
	C8.384901,18.790102 8.865170,18.534761 9.589373,18.157387 
	C11.327934,21.275057 12.822562,24.514761 14.619624,27.938057 
z"/>
<path fill="#7F6BE2" opacity="1.000000" stroke="none" 
	d="
M187.373703,40.975189 
	C188.108444,38.629326 189.152863,36.144268 190.085846,33.385311 
	C191.039001,33.491997 192.103577,33.872581 194.786713,34.831814 
	C191.763901,37.386879 189.723633,39.111435 187.373703,40.975189 
z"/>
<path fill="#7C68E1" opacity="1.000000" stroke="none" 
	d="
M181.397919,24.106674 
	C181.928818,22.627342 182.814209,21.112820 183.858521,19.300926 
	C185.172134,18.361917 186.326797,17.720278 187.817017,17.064491 
	C186.019165,19.390722 183.885788,21.731104 181.397919,24.106674 
z"/>
<path fill="#BAC5F5" opacity="1.000000" stroke="none" 
	d="
M238.936584,48.674629 
	C236.889343,48.924122 234.845825,49.007618 231.918823,49.053486 
	C228.383575,49.020924 225.731827,49.025986 223.080063,49.031048 
	C223.809616,48.365582 224.539154,47.700115 225.568604,46.970963 
	C229.925140,47.282837 233.981781,47.658405 238.490112,48.105255 
	C238.941788,48.176540 238.940292,48.508625 238.936584,48.674629 
z"/>
<path fill="#7646D8" opacity="1.000000" stroke="none" 
	d="
M148.101074,23.248991 
	C149.504105,20.954893 151.174225,18.529957 153.218231,16.004818 
	C151.850800,18.309130 150.109497,20.713640 148.101074,23.248991 
z"/>
<path fill="#C8B4F0" opacity="1.000000" stroke="none" 
	d="
M74.465576,51.880577 
	C73.839516,51.580490 73.592758,51.104713 73.703125,50.341808 
	C78.702522,50.034119 83.344803,50.013557 87.987091,49.992996 
	C87.989922,50.181862 87.992744,50.370724 87.978271,50.842400 
	C83.588943,51.318439 79.216919,51.511662 74.465576,51.880577 
z"/>
<path fill="#8290EC" opacity="1.000000" stroke="none" 
	d="
M85.540749,38.956299 
	C85.924683,39.132153 85.947876,39.345207 85.853378,40.192398 
	C83.504646,41.936798 81.273605,43.047062 79.026955,43.775360 
	C78.986740,42.883377 78.962135,42.373360 78.937531,41.863342 
	C81.018356,40.906723 83.099174,39.950108 85.540749,38.956299 
z"/>
<path fill="#B891E7" opacity="1.000000" stroke="none" 
	d="
M44.506378,47.934120 
	C44.770634,48.189110 44.578007,48.494473 44.151154,48.944588 
	C39.385349,48.994278 34.853771,48.899216 30.181307,48.390327 
	C30.040417,47.976501 30.233847,47.849762 30.542633,47.912964 
	C31.270500,47.967743 31.689581,47.959320 32.108662,47.950901 
	C36.088940,47.962097 40.069214,47.973289 44.506378,47.934120 
z"/>
<path fill="#6E32D3" opacity="1.000000" stroke="none" 
	d="
M71.908463,49.808647 
	C70.707771,49.555130 69.507080,49.301609 68.306389,49.048088 
	C68.613319,48.394936 68.920250,47.741779 69.787109,46.939949 
	C70.632996,46.651333 70.847466,46.439140 70.990448,46.154709 
	C71.423218,46.093559 71.855980,46.032413 72.658707,46.273964 
	C73.072632,46.802994 73.116592,47.029324 73.148392,47.479431 
	C73.136238,47.703213 73.127235,48.151852 72.871117,48.177387 
	C72.412102,48.465233 72.209206,48.727543 71.981819,49.194550 
	C71.957329,49.399246 71.908463,49.808647 71.908463,49.808647 
z"/>
<path fill="#8193ED" opacity="1.000000" stroke="none" 
	d="
M29.239597,48.088673 
	C28.536623,47.759174 28.029730,47.404530 27.203831,47.003910 
	C29.364071,45.558472 31.843313,44.159008 34.322556,42.759544 
	C34.594837,43.126057 34.867119,43.492569 35.139400,43.859081 
	C34.101921,44.624039 33.064438,45.388996 31.690556,46.515999 
	C30.980715,47.201950 30.607281,47.525856 30.233847,47.849762 
	C30.233847,47.849762 30.040417,47.976501 29.935650,48.025757 
	C29.830881,48.075008 29.435677,48.063530 29.239597,48.088673 
z"/>
<path fill="#7C51DB" opacity="1.000000" stroke="none" 
	d="
M60.027283,43.866188 
	C57.736458,42.843414 55.416035,41.836796 52.533768,40.586449 
	C57.090275,37.490849 57.604591,42.360355 59.875576,43.631866 
	C59.975368,43.945992 59.997681,43.882339 60.027283,43.866188 
z"/>
<path fill="#BAA7EC" opacity="1.000000" stroke="none" 
	d="
M124.069534,49.035580 
	C124.469345,48.395226 124.869148,47.754871 125.557556,47.045639 
	C127.906509,47.331188 129.966858,47.685619 132.435791,48.107460 
	C132.436905,48.472523 132.029449,48.770180 130.925644,49.071114 
	C128.156036,49.053722 126.082771,49.033054 124.024605,49.017845 
	C124.039703,49.023300 124.069534,49.035580 124.069534,49.035580 
z"/>
<path fill="#7F7CE6" opacity="1.000000" stroke="none" 
	d="
M11.849422,42.063934 
	C15.227531,39.621269 16.087265,42.964516 17.350559,45.268589 
	C15.637936,44.395672 13.925312,43.522758 12.066045,42.326485 
	C11.919402,42.003128 11.863236,42.034801 11.849422,42.063934 
z"/>
<path fill="#7036D5" opacity="1.000000" stroke="none" 
	d="
M136.924042,53.453629 
	C140.030563,54.080967 139.447998,55.851337 137.473770,57.919632 
	C137.074005,56.630745 137.019714,55.248661 136.924042,53.453629 
z"/>
<path fill="#7040D7" opacity="1.000000" stroke="none" 
	d="
M151.175262,48.609882 
	C150.813660,48.704453 150.524918,48.499012 150.125183,48.040722 
	C151.136398,46.873169 152.258621,45.958466 153.742798,45.075176 
	C153.152527,46.174351 152.200333,47.242115 151.175262,48.609882 
z"/>
<path fill="#7752DC" opacity="1.000000" stroke="none" 
	d="
M73.160545,47.255653 
	C73.116592,47.029324 73.072632,46.802994 72.985077,46.232544 
	C72.941490,45.888424 72.976051,45.523922 73.088211,45.028511 
	C73.114799,44.330460 73.029221,44.127811 72.943634,43.925159 
	C72.943634,43.925159 72.996407,44.001385 73.312790,44.155632 
	C74.402344,44.142689 75.175522,43.975491 75.971741,44.215645 
	C76.020462,45.166122 76.046127,45.709248 76.079544,46.365211 
	C76.087311,46.478054 75.908142,46.616161 75.554489,46.644489 
	C74.520737,46.867096 73.840645,47.061375 73.160545,47.255653 
z"/>
<path fill="#C6D6F9" opacity="1.000000" stroke="none" 
	d="
M255.532166,49.947067 
	C255.750305,50.614849 255.585449,51.321312 255.021484,51.608730 
	C253.024429,51.359272 251.426498,51.528858 249.828568,51.698448 
	C250.326431,51.154072 250.824295,50.609699 251.697525,49.975204 
	C253.098328,49.918640 254.123749,49.952198 255.532166,49.947067 
z"/>
<path fill="#7EBAF7" opacity="1.000000" stroke="none" 
	d="
M278.369690,66.907112 
	C279.457062,66.226341 280.908630,65.621521 282.754517,65.036942 
	C281.677185,65.699142 280.205536,66.341103 278.369690,66.907112 
z"/>
<path fill="#7F6BE2" opacity="1.000000" stroke="none" 
	d="
M184.390381,44.981270 
	C184.851501,43.783741 185.618271,42.447144 186.754288,41.086723 
	C186.314362,42.322670 185.505203,43.582436 184.390381,44.981270 
z"/>
<path fill="#8574E4" opacity="1.000000" stroke="none" 
	d="
M76.071793,46.252373 
	C76.046127,45.709248 76.020462,45.166122 75.952843,44.059013 
	C75.910889,43.495029 75.903725,43.178619 75.903725,43.178619 
	C75.903725,43.178619 76.370789,43.003513 76.846237,42.896286 
	C77.628784,42.649448 77.852608,42.426304 77.993156,42.119614 
	C77.993156,42.119614 78.465057,41.989330 78.701294,41.926338 
	C78.962135,42.373360 78.986740,42.883377 78.907578,44.072937 
	C77.893135,45.252445 76.982460,45.752411 76.071793,46.252373 
z"/>
<path fill="#845FDE" opacity="1.000000" stroke="none" 
	d="
M161.409622,8.978277 
	C161.867020,7.771579 162.636154,6.439013 163.773804,5.071014 
	C163.335327,6.307857 162.528351,7.580132 161.409622,8.978277 
z"/>
<path fill="#7DC1F9" opacity="1.000000" stroke="none" 
	d="
M286.335144,63.852886 
	C287.130280,62.929123 288.254944,61.999199 289.737305,61.110546 
	C288.951538,62.050117 287.808105,62.948418 286.335144,63.852886 
z"/>
<path fill="#7363E1" opacity="1.000000" stroke="none" 
	d="
M185.330582,63.827892 
	C186.140594,62.925514 187.279297,62.007320 188.763916,61.078186 
	C187.959656,61.982189 186.809464,62.897133 185.330582,63.827892 
z"/>
<path fill="#7456DD" opacity="1.000000" stroke="none" 
	d="
M168.097931,58.373875 
	C168.363632,58.958931 168.560760,59.915207 168.448853,60.936203 
	C168.102997,60.248974 168.066162,59.497036 168.097931,58.373875 
z"/>
<path fill="#7C8DEB" opacity="1.000000" stroke="none" 
	d="
M225.337097,62.904602 
	C225.816925,62.230858 226.623337,61.631195 227.777008,61.063202 
	C227.304077,61.722813 226.483887,62.350750 225.337097,62.904602 
z"/>
<path fill="#7040D7" opacity="1.000000" stroke="none" 
	d="
M149.577087,32.023945 
	C149.453217,32.884529 149.025986,33.866932 148.243408,34.893436 
	C148.349930,34.006947 148.811829,33.076355 149.577087,32.023945 
z"/>
<path fill="#7DA2F1" opacity="1.000000" stroke="none" 
	d="
M251.334167,62.904816 
	C251.815323,62.234703 252.621887,61.640221 253.772552,61.091187 
	C253.297653,61.751236 252.478622,62.365841 251.334167,62.904816 
z"/>
<path fill="#8358DC" opacity="1.000000" stroke="none" 
	d="
M110.702339,51.894829 
	C110.271019,52.803082 109.552544,53.868351 108.486938,54.979774 
	C108.898262,54.034573 109.656723,53.043213 110.702339,51.894829 
z"/>
<path fill="#8495ED" opacity="1.000000" stroke="none" 
	d="
M228.346252,44.899853 
	C228.825150,44.220631 229.630020,43.615337 230.781555,43.054707 
	C230.309540,43.724174 229.490875,44.348980 228.346252,44.899853 
z"/>
<path fill="#784FDB" opacity="1.000000" stroke="none" 
	d="
M171.744781,66.155182 
	C172.336502,66.006821 173.078125,66.107025 173.905518,66.540810 
	C173.292419,66.717506 172.593552,66.560631 171.744781,66.155182 
z"/>
<path fill="#7646D8" opacity="1.000000" stroke="none" 
	d="
M146.910065,10.769149 
	C146.985718,11.403413 146.796829,12.126110 146.257828,12.903858 
	C146.153641,12.258467 146.399567,11.558024 146.910065,10.769149 
z"/>
<path fill="#D5D2F6" opacity="1.000000" stroke="none" 
	d="
M75.578972,43.104397 
	C75.903725,43.178619 75.910889,43.495029 75.929794,43.651665 
	C75.175522,43.975491 74.402344,44.142689 73.277832,44.124283 
	C73.702393,43.635849 74.478310,43.333012 75.578972,43.104397 
z"/>
<path fill="#734CDA" opacity="1.000000" stroke="none" 
	d="
M161.621887,19.873943 
	C161.158905,20.523613 160.367813,21.217136 159.237183,21.901304 
	C159.696365,21.233896 160.495087,20.575846 161.621887,19.873943 
z"/>
<path fill="#845FDE" opacity="1.000000" stroke="none" 
	d="
M159.316681,11.078207 
	C159.497391,10.509977 159.951477,9.804456 160.754761,9.089474 
	C160.599335,9.700313 160.094681,10.320614 159.316681,11.078207 
z"/>
<path fill="#845FDE" opacity="1.000000" stroke="none" 
	d="
M156.336761,13.993656 
	C156.541245,13.439152 157.026871,12.764893 157.857773,12.065575 
	C157.674667,12.651644 157.146286,13.262774 156.336761,13.993656 
z"/>
<path fill="#7DACF3" opacity="1.000000" stroke="none" 
	d="
M260.590637,45.996284 
	C260.425262,46.552830 259.981598,47.216942 259.203705,47.915745 
	C259.350433,47.334911 259.831360,46.719379 260.590637,45.996284 
z"/>
<path fill="#734CDA" opacity="1.000000" stroke="none" 
	d="
M158.613068,22.001591 
	C158.513687,22.559753 158.135223,23.224567 157.445755,23.950329 
	C157.534500,23.376932 157.934250,22.742588 158.613068,22.001591 
z"/>
<path fill="#7F6BE2" opacity="1.000000" stroke="none" 
	d="
M181.610992,34.991970 
	C181.517731,35.559711 181.141388,36.233295 180.448120,36.964859 
	C180.530121,36.381165 180.929016,35.739487 181.610992,34.991970 
z"/>
<path fill="#6D33D4" opacity="1.000000" stroke="none" 
	d="
M142.326843,29.019600 
	C142.442947,28.462828 142.839508,27.794508 143.546371,27.061291 
	C143.440231,27.633614 143.023773,28.270836 142.326843,29.019600 
z"/>
<path fill="#7F6BE2" opacity="1.000000" stroke="none" 
	d="
M183.647888,33.899780 
	C183.486359,34.223370 183.007385,34.582859 182.209915,34.917702 
	C182.371109,34.573936 182.850769,34.254814 183.647888,33.899780 
z"/>
<path fill="#7321CF" opacity="1.000000" stroke="none" 
	d="
M122.691635,38.966614 
	C122.678238,39.403141 122.415573,39.939781 121.837570,40.397766 
	C121.828949,39.901649 122.135666,39.484184 122.691635,38.966614 
z"/>
<path fill="#7F6BE2" opacity="1.000000" stroke="none" 
	d="
M185.708221,33.035583 
	C185.518738,33.383892 185.006592,33.664299 184.189087,33.923042 
	C184.384354,33.590145 184.884949,33.278908 185.708221,33.035583 
z"/>
<path fill="#7646D8" opacity="1.000000" stroke="none" 
	d="
M146.252014,24.890326 
	C146.277756,24.389383 146.573532,23.917751 147.148895,23.575909 
	C147.126358,24.110342 146.824219,24.514988 146.252014,24.890326 
z"/>
<path fill="#845FDE" opacity="1.000000" stroke="none" 
	d="
M154.180283,15.706300 
	C154.316162,15.138317 154.838089,14.635824 155.735382,14.094108 
	C155.595947,14.627186 155.081131,15.199488 154.180283,15.706300 
z"/>
<path fill="#785DDF" opacity="1.000000" stroke="none" 
	d="
M172.641937,11.908068 
	C172.471573,12.221971 171.976776,12.588820 171.156860,12.988091 
	C171.326981,12.667346 171.822235,12.314181 172.641937,11.908068 
z"/>
<path fill="#7646D8" opacity="1.000000" stroke="none" 
	d="
M148.628571,8.997091 
	C148.688965,9.461494 148.473038,10.008574 147.943451,10.502138 
	C147.870605,9.992338 148.111435,9.536053 148.628571,8.997091 
z"/>
<path fill="#7DACF3" opacity="1.000000" stroke="none" 
	d="
M262.394958,55.000744 
	C262.332581,54.739143 262.511047,54.402504 262.927155,54.077789 
	C262.988464,54.368378 262.812134,54.647041 262.394958,55.000744 
z"/>
<path fill="#CFD5F8" opacity="1.000000" stroke="none" 
	d="
M30.542633,47.912964 
	C30.607281,47.525856 30.980715,47.201950 31.619783,46.857880 
	C31.932459,47.021347 31.979504,47.204979 32.067604,47.669754 
	C31.689581,47.959320 31.270500,47.967743 30.542633,47.912964 
z"/>
<path fill="#8495ED" opacity="1.000000" stroke="none" 
	d="
M228.644867,38.920616 
	C228.472946,39.226574 227.977371,39.590412 227.158020,39.989769 
	C227.329895,39.676357 227.825577,39.327423 228.644867,38.920616 
z"/>
<path fill="#81A5F1" opacity="1.000000" stroke="none" 
	d="
M256.282593,42.064850 
	C256.336212,41.644947 256.624817,41.135349 257.211975,40.739948 
	C257.179565,41.227814 256.848541,41.601482 256.282593,42.064850 
z"/>
<path fill="#7646D8" opacity="1.000000" stroke="none" 
	d="
M149.697571,7.976101 
	C149.774506,8.189655 149.588242,8.471382 149.165649,8.856129 
	C149.097672,8.654190 149.266037,8.349231 149.697571,7.976101 
z"/>
<path fill="#7363E1" opacity="1.000000" stroke="none" 
	d="
M185.720001,54.916832 
	C185.726715,55.038017 185.493866,55.216770 185.138733,55.267918 
	C185.016449,55.140312 185.480438,54.974403 185.720001,54.916832 
z"/>
<path fill="#7752DC" opacity="1.000000" stroke="none" 
	d="
M70.730133,46.106911 
	C70.847466,46.439140 70.632996,46.651333 70.123352,46.846806 
	C69.899658,46.902332 69.939728,46.544857 69.947769,46.365181 
	C70.127144,46.143375 70.298485,46.101246 70.730133,46.106911 
z"/>
<path fill="#7F6BE2" opacity="1.000000" stroke="none" 
	d="
M183.295532,46.029236 
	C183.236771,45.829784 183.438782,45.543903 183.882874,45.145546 
	C183.935410,45.336319 183.745850,45.639565 183.295532,46.029236 
z"/>
<path fill="#D5D2F6" opacity="1.000000" stroke="none" 
	d="
M72.679123,44.007004 
	C73.029221,44.127811 73.114799,44.330460 73.094147,44.845543 
	C72.796814,44.801601 72.605713,44.445225 72.679123,44.007004 
z"/>
<path fill="#81A5F1" opacity="1.000000" stroke="none" 
	d="
M254.295197,44.023209 
	C254.247864,43.831745 254.460220,43.551224 254.913910,43.155224 
	C254.955109,43.337883 254.755005,43.636021 254.295197,44.023209 
z"/>
<path fill="#8290EC" opacity="1.000000" stroke="none" 
	d="
M77.719193,42.085911 
	C77.852608,42.426304 77.628784,42.649448 77.094017,42.867867 
	C77.059303,42.648521 77.252266,42.350365 77.719193,42.085911 
z"/>
<path fill="#7040D7" opacity="1.000000" stroke="none" 
	d="
M150.727264,31.106937 
	C150.844772,31.423347 150.629044,31.639391 150.121414,31.855837 
	C150.088425,31.643669 150.276581,31.360447 150.727264,31.106937 
z"/>
<path fill="#7321CF" opacity="1.000000" stroke="none" 
	d="
M129.354111,59.004120 
	C129.295349,58.811378 129.485809,58.540577 129.904175,58.163372 
	C129.955841,58.346668 129.779572,58.636364 129.354111,59.004120 
z"/>
<path fill="#7040D7" opacity="1.000000" stroke="none" 
	d="
M147.709412,34.980820 
	C147.890457,35.199245 147.751160,35.469105 147.347992,35.834969 
	C147.264725,35.672157 147.366364,35.372581 147.709412,34.980820 
z"/>
<path fill="#7DC1F9" opacity="1.000000" stroke="none" 
	d="
M287.720947,53.929947 
	C287.728302,54.049362 287.497864,54.223637 287.146179,54.275288 
	C287.024933,54.152664 287.483185,53.984802 287.720947,53.929947 
z"/>
<path fill="#81A5F1" opacity="1.000000" stroke="none" 
	d="
M251.711945,36.953918 
	C251.887665,37.166195 251.747665,37.443047 251.351685,37.827049 
	C251.265610,37.664234 251.365799,37.358997 251.711945,36.953918 
z"/>
<path fill="#000000" opacity="1.000000" stroke="none" 
	d="
M349.762939,47.561878 
	C349.212494,47.604179 348.890015,47.335335 348.567505,47.066490 
	C349.041962,47.127903 349.516418,47.189316 349.762939,47.561878 
z"/>
<path fill="#000000" opacity="1.000000" stroke="none" 
	d="
M112.177826,69.950630 
	C108.065140,79.885262 101.358040,87.659630 93.025475,94.080544 
	C92.474564,93.708580 91.923645,93.336617 91.372734,92.964653 
	C95.687675,86.064484 99.740334,78.977417 104.454567,72.361771 
	C106.191261,69.924614 106.936028,65.366714 111.896194,67.051758 
	C112.074951,68.465599 112.126389,69.208115 112.177826,69.950630 
z"/>
<path fill="#8B49D7" opacity="1.000000" stroke="none" 
	d="
M112.484726,69.891861 
	C112.126389,69.208115 112.074951,68.465599 112.086784,67.353455 
	C112.363907,67.933578 112.577766,68.883339 112.484726,69.891861 
z"/>
<path fill="#000000" opacity="1.000000" stroke="none" 
	d="
M123.042038,51.871780 
	C122.570740,52.597012 122.099442,53.322243 121.297791,54.301308 
	C121.206268,54.052750 121.445114,53.550362 122.066650,52.577721 
	C122.646912,52.028900 122.844467,51.950340 123.042038,51.871780 
z"/>
<path fill="#C2ADEE" opacity="1.000000" stroke="none" 
	d="
M123.033188,51.071888 
	C123.001534,50.879387 122.969872,50.686890 123.256500,50.269154 
	C123.574783,50.043919 123.849754,50.043694 124.142151,50.086044 
	C124.692940,50.396019 124.951347,50.663643 124.855980,50.970425 
	C124.033623,51.031467 123.565041,51.053352 123.080193,51.079494 
	C123.063934,51.083752 123.033188,51.071888 123.033188,51.071888 
z"/>
<path fill="#BAA7EC" opacity="1.000000" stroke="none" 
	d="
M123.849754,50.043694 
	C123.849754,50.043694 123.574783,50.043919 123.438705,50.040169 
	C123.302620,50.036415 123.294403,49.812130 123.320473,49.704887 
	C123.346542,49.597645 123.731155,49.346539 123.900345,49.191059 
	C124.069534,49.035580 124.039703,49.023300 123.927139,49.266754 
	C123.826294,49.688038 123.838020,49.865864 123.849754,50.043694 
z"/>
<path fill="#D6BFF1" opacity="1.000000" stroke="none" 
	d="
M123.036087,51.915871 
	C122.844467,51.950340 122.646912,52.028900 122.212234,52.320705 
	C122.061119,52.050968 122.147125,51.567989 122.633163,51.078449 
	C123.033188,51.071888 123.063934,51.083752 123.054695,51.299648 
	C123.045456,51.515545 122.942192,51.946518 122.942192,51.946518 
	C122.942192,51.946518 123.030151,51.959969 123.036087,51.915871 
z"/>
<path fill="#000000" opacity="1.000000" stroke="none" 
	d="
M222.943756,49.367027 
	C225.731827,49.025986 228.383575,49.020924 231.478592,49.071861 
	C234.151230,52.953922 229.765274,52.982250 228.312943,55.014465 
	C227.707413,55.235466 227.412552,55.315071 226.801666,55.694374 
	C226.485611,55.994072 226.019043,56.155422 226.019043,56.155422 
	C223.185562,57.128159 220.352081,58.100895 217.603714,59.044411 
	C214.935333,53.179176 219.636673,51.897572 222.943756,49.367027 
z"/>
<path fill="#000000" opacity="1.000000" stroke="none" 
	d="
M203.351776,53.034065 
	C203.113449,52.458969 203.228729,51.859436 203.666595,51.058670 
	C204.879669,50.989685 205.770172,51.121933 206.796890,51.564621 
	C205.857208,52.253246 204.781281,52.631435 203.351776,53.034065 
z"/>
<path fill="#7C8DEB" opacity="1.000000" stroke="none" 
	d="
M226.141907,56.279480 
	C226.019043,56.155422 226.485611,55.994072 226.724915,55.933426 
	C226.731064,56.049702 226.497925,56.226620 226.141907,56.279480 
z"/>
<path fill="#000000" opacity="1.000000" stroke="none" 
	d="
M148.633469,50.074181 
	C152.956696,50.266472 156.961380,50.673954 160.978882,51.506577 
	C159.854095,52.577839 158.716507,53.223965 157.272491,54.001831 
	C156.966049,54.133575 156.497086,54.090698 156.497086,54.090698 
	C156.497086,54.090698 156.132126,54.388405 155.740479,54.667103 
	C154.864380,55.274868 154.379913,55.603935 153.895447,55.933006 
	C153.895447,55.933006 153.973877,55.948387 153.645844,55.941391 
	C152.826660,56.276852 152.335526,56.619312 151.844406,56.961773 
	C150.503372,57.329689 149.162354,57.697601 146.613083,58.396999 
	C147.283356,55.203800 147.799133,52.746586 148.633469,50.074181 
z"/>
<path fill="#784FDB" opacity="1.000000" stroke="none" 
	d="
M152.170212,56.958099 
	C152.335526,56.619312 152.826660,56.276852 153.647583,55.901463 
	C153.483597,56.230495 152.989807,56.592461 152.170212,56.958099 
z"/>
<path fill="#784FDB" opacity="1.000000" stroke="none" 
	d="
M154.215942,55.923615 
	C154.379913,55.603935 154.864380,55.274868 155.659195,54.888603 
	C155.491837,55.192345 155.014130,55.553284 154.215942,55.923615 
z"/>
<path fill="#000000" opacity="1.000000" stroke="none" 
	d="
M249.661621,51.920418 
	C251.426498,51.528858 253.024429,51.359272 254.709076,51.583466 
	C254.795807,51.977253 254.914810,52.023342 254.671692,52.029060 
	C254.255096,52.348255 254.081635,52.661728 253.908173,52.975204 
	C253.908173,52.975204 253.980606,52.983788 253.705170,53.013451 
	C253.236115,53.356079 253.042496,53.669044 252.848877,53.982014 
	C251.942612,54.442055 251.036331,54.902092 250.008743,55.663021 
	C249.092331,56.283512 248.297256,56.603115 247.502167,56.922722 
	C247.259659,56.690193 247.017136,56.457668 246.774628,56.225143 
	C247.681320,54.864223 248.587997,53.503304 249.661621,51.920418 
z"/>
<path fill="#000000" opacity="1.000000" stroke="none" 
	d="
M76.079552,46.365215 
	C76.982460,45.752411 77.893135,45.252445 78.923187,44.454903 
	C81.273605,43.047062 83.504646,41.936798 85.882187,40.512577 
	C86.683891,42.486309 87.339111,44.773998 87.518814,47.522217 
	C83.387276,47.954212 79.731247,47.925678 76.045059,47.575386 
	C75.979309,47.041138 75.943726,46.828651 75.908142,46.616161 
	C75.908142,46.616161 76.087311,46.478054 76.079552,46.365215 
z"/>
<path fill="#804FDA" opacity="1.000000" stroke="none" 
	d="
M72.219513,49.894470 
	C71.908463,49.808647 71.957329,49.399246 72.298111,49.098869 
	C72.837509,48.703102 73.036133,48.607712 73.554253,48.579636 
	C74.522720,48.642220 75.171692,48.637489 76.279747,48.746819 
	C80.485428,48.911327 84.232018,48.961769 87.978615,49.012207 
	C87.978615,49.012207 88.041954,49.502079 88.014526,49.747540 
	C83.344803,50.013557 78.702522,50.034119 73.609810,50.090065 
	C72.949776,50.077065 72.740166,50.028679 72.219513,49.894470 
z"/>
<path fill="#B89BE9" opacity="1.000000" stroke="none" 
	d="
M87.985352,48.730225 
	C84.232018,48.961769 80.485428,48.911327 76.316864,48.554382 
	C75.894890,48.247883 76.075226,47.897144 76.075226,47.897144 
	C79.731247,47.925678 83.387276,47.954212 87.497292,47.934174 
	C87.964890,48.073147 87.978485,48.260693 87.985352,48.730225 
z"/>
<path fill="#000000" opacity="1.000000" stroke="none" 
	d="
M165.925262,26.392010 
	C168.153397,24.115017 170.271271,22.120073 172.980499,20.001656 
	C174.050964,19.627752 174.530090,19.377321 175.084686,19.346684 
	C175.354111,19.824993 175.607101,19.996346 175.919128,20.080532 
	C172.489304,23.340746 169.059494,26.600960 165.414825,30.133646 
	C165.199997,30.406118 165.213226,30.499086 164.987488,30.628193 
	C164.192123,31.187008 163.622528,31.616714 162.881470,31.866886 
	C162.710037,31.687353 162.329849,31.368086 162.535400,31.125721 
	C162.863998,30.268597 162.987030,29.653839 163.110077,29.039082 
	C164.011703,28.250738 164.913345,27.462397 165.925262,26.392010 
z"/>
<path fill="#734CDA" opacity="1.000000" stroke="none" 
	d="
M162.757965,29.068527 
	C162.987030,29.653839 162.863998,30.268597 162.317596,31.324644 
	C161.662689,32.450634 161.431168,33.135334 161.199646,33.820034 
	C160.732498,33.887894 160.265335,33.955753 159.413055,34.028881 
	C159.027939,34.034149 158.956619,33.980110 158.956619,33.980110 
	C160.106369,32.352730 161.256119,30.725351 162.757965,29.068527 
z"/>
<path fill="#000000" opacity="1.000000" stroke="none" 
	d="
M161.496048,33.856621 
	C161.431168,33.135334 161.662689,32.450634 162.112030,31.567009 
	C162.329849,31.368086 162.710037,31.687353 162.853256,32.115486 
	C163.042557,32.703926 163.088623,32.864235 163.134674,33.024536 
	C162.687256,33.314091 162.239853,33.603649 161.496048,33.856621 
z"/>
<path fill="#7758DD" opacity="1.000000" stroke="none" 
	d="
M163.466095,32.982391 
	C163.088623,32.864235 163.042557,32.703926 163.024689,32.295021 
	C163.622528,31.616714 164.192123,31.187008 164.997787,30.674000 
	C164.755051,31.373877 164.276276,32.157059 163.466095,32.982391 
z"/>
<path fill="#734CDA" opacity="1.000000" stroke="none" 
	d="
M159.060181,34.065174 
	C158.927582,34.478729 158.762756,34.861263 158.597900,35.243793 
	C158.593750,34.905907 158.589584,34.568020 158.771027,34.105122 
	C158.956619,33.980110 159.027939,34.034149 159.060181,34.065174 
z"/>
<path fill="#855FDE" opacity="1.000000" stroke="none" 
	d="
M124.142151,50.086044 
	C123.838020,49.865864 123.826294,49.688038 123.912041,49.261299 
	C126.082771,49.033054 128.156036,49.053722 130.672791,49.141846 
	C130.841171,49.697887 130.566055,50.186478 129.806732,50.513218 
	C128.086227,50.567310 126.849937,50.783253 125.503174,51.038689 
	C125.392700,51.078178 125.209747,50.931267 125.209747,50.931267 
	C124.951347,50.663643 124.692940,50.396019 124.142151,50.086044 
z"/>
<path fill="#C2ADEE" opacity="1.000000" stroke="none" 
	d="
M125.613640,50.999199 
	C126.849937,50.783253 128.086227,50.567310 129.528275,50.590736 
	C128.646332,51.253044 127.558655,51.675983 126.169800,51.794167 
	C125.783623,51.326008 125.698631,51.162601 125.613640,50.999199 
z"/>
<path fill="#000000" opacity="1.000000" stroke="none" 
	d="
M125.503174,51.038689 
	C125.698631,51.162601 125.783623,51.326008 125.809341,51.759888 
	C124.985786,52.215221 124.221497,52.400074 123.199707,52.265720 
	C122.942192,51.946518 123.045456,51.515545 123.070953,51.295391 
	C123.565041,51.053352 124.033623,51.031467 124.855980,50.970425 
	C125.209747,50.931267 125.392700,51.078178 125.503174,51.038689 
z"/>
<path fill="#E2E0F9" opacity="1.000000" stroke="none" 
	d="
M199.502060,55.900639 
	C199.634613,55.636875 200.054413,55.418243 200.726074,55.108604 
	C200.581726,55.326988 200.185516,55.636383 199.502060,55.900639 
z"/>
<path fill="#E2E0F9" opacity="1.000000" stroke="none" 
	d="
M201.313965,55.080662 
	C201.015396,54.980675 201.076233,54.748775 201.270981,54.384956 
	C201.940674,54.011997 202.415604,54.002857 202.890533,53.993710 
	C202.464539,54.389351 202.038544,54.785000 201.313965,55.080662 
z"/>
<path fill="#000000" opacity="1.000000" stroke="none" 
	d="
M202.947800,53.746883 
	C202.415604,54.002857 201.940674,54.011997 201.217346,54.277748 
	C201.445374,53.824894 201.921783,53.115437 202.729385,52.701157 
	C203.042084,53.164242 203.023560,53.332150 202.947800,53.746883 
z"/>
<path fill="#D3CAF4" opacity="1.000000" stroke="none" 
	d="
M176.263031,20.037676 
	C175.607101,19.996346 175.354111,19.824993 175.129211,19.063915 
	C175.065292,18.373800 175.032333,18.186249 174.999359,17.998699 
	C175.515686,17.451920 176.032013,16.905140 176.774353,16.186710 
	C177.540848,16.216125 178.081345,16.417189 178.841827,16.809246 
	C178.243546,17.998430 177.425247,18.996626 176.263031,20.037676 
z"/>
<path fill="#7C68E1" opacity="1.000000" stroke="none" 
	d="
M183.003952,11.460026 
	C183.284775,12.213727 183.255234,12.915287 183.225708,13.616848 
	C182.650711,13.491995 182.075699,13.367142 181.500702,13.242289 
	C181.898346,12.630821 182.295975,12.019354 183.003952,11.460026 
z"/>
<path fill="#785DDF" opacity="1.000000" stroke="none" 
	d="
M174.695312,18.037407 
	C175.032333,18.186249 175.065292,18.373800 175.053741,18.844122 
	C174.530090,19.377321 174.050964,19.627752 173.287659,19.859379 
	C173.466049,19.252420 173.928650,18.664268 174.695312,18.037407 
z"/>
<path fill="#C6D6F9" opacity="1.000000" stroke="none" 
	d="
M254.186157,52.920078 
	C254.081635,52.661728 254.255096,52.348255 254.701187,51.972485 
	C254.803925,52.228443 254.634048,52.546696 254.186157,52.920078 
z"/>
<path fill="#C6D6F9" opacity="1.000000" stroke="none" 
	d="
M253.122269,53.903667 
	C253.042496,53.669044 253.236115,53.356079 253.705658,52.976990 
	C253.786270,53.215683 253.590973,53.520504 253.122269,53.903667 
z"/>
<path fill="#BFCCF6" opacity="1.000000" stroke="none" 
	d="
M41.862904,82.476074 
	C42.156925,82.643509 42.324497,83.101570 42.492073,83.559624 
	C42.103317,83.485023 41.714561,83.410423 41.231472,83.154457 
	C41.336910,82.904289 41.536686,82.835487 41.862904,82.476074 
z"/>
<path fill="#DED6F6" opacity="1.000000" stroke="none" 
	d="
M76.045059,47.575386 
	C76.075226,47.897144 75.894890,48.247883 75.857773,48.440319 
	C75.171692,48.637489 74.522720,48.642220 73.544922,48.485252 
	C73.216087,48.323547 73.127235,48.151852 73.127235,48.151852 
	C73.127235,48.151852 73.136238,47.703213 73.148392,47.479431 
	C73.840645,47.061375 74.520737,46.867096 75.554489,46.644489 
	C75.943726,46.828651 75.979309,47.041138 76.045059,47.575386 
z"/>
<path fill="#B89BE9" opacity="1.000000" stroke="none" 
	d="
M72.871117,48.177387 
	C73.127235,48.151852 73.216087,48.323547 73.225418,48.417934 
	C73.036133,48.607712 72.837509,48.703102 72.322601,48.894173 
	C72.209206,48.727543 72.412102,48.465233 72.871117,48.177387 
z"/>
</svg>